<?xml version="1.0" encoding="UTF-8"?>
<svg version="1.1" xmlns="http://www.w3.org/2000/svg" width="30" height="30">
<path d="M0 0 C3.21444422 2.84707917 4.97991449 5.81456013 6.1875 9.9375 C6.47043504 15.09034724 5.6730422 20.00221042 2.1875 23.9375 C-1.85817166 26.91701819 -5.45426317 28.28775643 -10.5 27.875 C-14.98603262 27.07337218 -18.23111874 26.08474293 -21.03515625 22.27734375 C-24.10801427 17.03786041 -24.33017072 12.76267731 -22.8125 6.9375 C-21.10538528 2.41866693 -18.33395525 0.53888019 -14.06640625 -1.40234375 C-9.13942124 -2.84542948 -4.69612015 -1.77408983 0 0 Z M-16.875 4.8125 C-19.53339437 7.72815834 -19.93696256 9.22082119 -19.875 13.0625 C-19.854375 14.34125 -19.83375 15.62 -19.8125 16.9375 C-17.86899404 18.1912118 -17.86899404 18.1912118 -15.8671875 17.37890625 C-15.14789062 17.08886719 -14.42859375 16.79882812 -13.6875 16.5 C-12.96304687 16.21253906 -12.23859375 15.92507812 -11.4921875 15.62890625 C-10.93789062 15.40074219 -10.38359375 15.17257813 -9.8125 14.9375 C-10.4725 14.586875 -11.1325 14.23625 -11.8125 13.875 C-13.8125 11.9375 -13.8125 11.9375 -14.125 8.375 C-13.8125 4.9375 -13.8125 4.9375 -12.8125 2.9375 C-15.03041796 2.71327574 -15.03041796 2.71327574 -16.875 4.8125 Z M-4.8125 2.9375 C-4.4825 3.5975 -4.1525 4.2575 -3.8125 4.9375 C-3.5 8.375 -3.5 8.375 -3.8125 11.9375 C-5.8125 13.875 -5.8125 13.875 -7.8125 14.9375 C-4.8425 15.9275 -1.8725 16.9175 1.1875 17.9375 C2.61474406 16.72975747 2.61474406 16.72975747 2.4375 13.1875 C2.38223241 9.3394938 1.74107288 6.94706804 -0.8125 3.9375 C-2.89783633 3.05927688 -2.89783633 3.05927688 -4.8125 2.9375 Z " fill="#000000" transform="translate(23.8125,2.0625)"/>
</svg>
