<?xml version="1.0" encoding="UTF-8"?>
<svg version="1.1" xmlns="http://www.w3.org/2000/svg" width="512" height="512">
<path d="M0 0 C3.49524816 2.84959815 6.7646429 5.86113601 10 9 C10.67289063 9.59941406 11.34578125 10.19882813 12.0390625 10.81640625 C29.23953287 26.68058509 39.70227856 52.16033664 41.20678711 75.16137695 C41.30224358 78.38135916 41.32883485 81.59117173 41.3125 84.8125 C41.30831055 85.94961426 41.30412109 87.08672852 41.29980469 88.25830078 C41.18458839 96.85662327 40.37020524 104.69915135 38 113 C37.59974609 114.48693359 37.59974609 114.48693359 37.19140625 116.00390625 C30.73133891 137.56617547 17.18466683 155.73318878 0 170 C0.64960693 170.30703857 1.29921387 170.61407715 1.96850586 170.93041992 C4.95964644 172.34635233 7.94857601 173.76689488 10.9375 175.1875 C11.95908203 175.67025391 12.98066406 176.15300781 14.03320312 176.65039062 C20.14923686 179.56185716 26.12932499 182.61974569 32 186 C32.53625 185.2471875 33.0725 184.494375 33.625 183.71875 C48.62892198 163.17168503 67.28998994 148.23930629 90 137 C89.46632813 136.52433594 88.93265625 136.04867187 88.3828125 135.55859375 C77.1630451 125.01822403 69.80943185 112.52353181 65 98 C64.66097656 97.03707031 64.32195312 96.07414062 63.97265625 95.08203125 C57.70270655 73.6717422 61.47978818 49.8881051 71.9453125 30.61328125 C83.06618991 10.83656885 100.09573247 -3.45578826 122 -10 C144.51979231 -15.75006397 166.56412289 -13.04127011 187 -1.875 C207.10617651 10.43273865 219.76437544 27.96923535 226.4375 50.5 C232.0585797 74.10853473 228.14523231 98.39951701 215.625 119.14453125 C212.1538605 124.50398144 207.79996904 129.01599811 203.30859375 133.5234375 C200.77271135 135.67954233 200.77271135 135.67954233 201 138 C201.85980469 138.40089844 202.71960938 138.80179688 203.60546875 139.21484375 C235.57861036 154.5912401 260.03272246 180.96251121 273 214 C275.29871528 220.57648809 277.23314653 227.26263037 279 234 C279.18264404 234.66700928 279.36528809 235.33401855 279.5534668 236.02124023 C281.69870781 245.52762539 280.84571847 256.55187241 276 265 C275.649375 265.64195312 275.29875 266.28390625 274.9375 266.9453125 C271.7554407 272.04986596 267.21278912 275.13872143 262 278 C261.09809433 278.51601273 260.19618866 279.03202545 259.26695251 279.56367493 C253.27487715 282.07754093 246.63026532 281.39107276 240.25219727 281.34057617 C238.75364702 281.33972913 237.25509554 281.34020656 235.75654602 281.34190369 C231.70326076 281.34276204 227.65024353 281.32516228 223.59702039 281.30418181 C219.35562335 281.28538833 215.11421972 281.28366247 210.87278748 281.28010559 C202.84770335 281.27079296 194.82274228 281.2461898 186.79771227 281.21605712 C177.65868436 281.18248873 168.51965049 281.16602098 159.38057625 281.15097082 C140.58698115 281.11963952 121.79350048 281.06689428 103 281 C103.14851913 281.58836639 103.29703827 282.17673279 103.45005798 282.78292847 C104.12998964 285.49650248 104.79746525 288.21300009 105.46484375 290.9296875 C105.69860718 291.85483154 105.93237061 292.77997559 106.17321777 293.7331543 C109.41762508 307.04369299 109.9598981 320.07271412 102.6796875 332.19921875 C96.34065716 341.29209013 88.52750784 346.64112305 78 350 C73.98116547 350.63170556 70.07034406 350.67822392 66.0078125 350.63491821 C64.86263153 350.64271817 63.71745056 350.65051812 62.53756714 350.65855443 C58.73304244 350.67836154 54.92953059 350.66275293 51.125 350.64697266 C48.3840938 350.65100534 45.64322946 350.66248006 42.90234375 350.67352295 C36.25033262 350.69567346 29.5986047 350.69099099 22.94658279 350.67645974 C17.53695618 350.66513505 12.12740853 350.66365051 6.71777344 350.66907883 C5.94576284 350.66984499 5.17375225 350.67061116 4.3783474 350.67140054 C2.80967456 350.67299928 1.24100174 350.67462035 -0.32767105 350.6762635 C-15.01263776 350.690497 -29.69744802 350.67416604 -44.38238907 350.64726166 C-56.96333768 350.62492503 -69.54405555 350.62880584 -82.125 350.65185547 C-96.7599568 350.67865599 -111.39477672 350.68912393 -126.02975464 350.67379415 C-127.59242755 350.67220152 -129.15510048 350.67062967 -130.71777344 350.66907883 C-131.48649591 350.66830745 -132.25521839 350.66753607 -133.04723549 350.66674132 C-138.44591197 350.66243705 -143.84450111 350.66968329 -149.24316406 350.68147659 C-155.828781 350.69554753 -162.41410024 350.69160586 -168.99968338 350.66507287 C-172.35537626 350.65199537 -175.71016694 350.64939979 -179.06591797 350.66331863 C-182.71370467 350.67705035 -186.36011283 350.6597631 -190.0078125 350.63491821 C-191.05413849 350.64607182 -192.10046448 350.65722543 -193.17849731 350.66871703 C-204.51151538 350.51973352 -213.70641388 346.28970298 -221.8046875 338.46484375 C-231.0215117 328.11641658 -232.97267859 316.96479191 -232.23388672 303.50878906 C-229.69194761 276.24264474 -215.51681879 248.36997496 -199 227 C-198.3296875 226.10667969 -197.659375 225.21335937 -196.96875 224.29296875 C-181.69857804 204.70603664 -162.95995407 189.40394778 -141 178 C-139.84628906 177.40058594 -138.69257813 176.80117188 -137.50390625 176.18359375 C-133.06173847 173.92716825 -128.64799539 171.80057479 -124 170 C-125.45019531 168.71029297 -125.45019531 168.71029297 -126.9296875 167.39453125 C-147.809469 148.55783382 -163.40269284 124.61067009 -165.203125 95.74316406 C-165.30322841 92.24254769 -165.32894013 88.751987 -165.3125 85.25 C-165.30512817 83.3944751 -165.30512817 83.3944751 -165.29760742 81.50146484 C-164.92520399 52.46163585 -152.73562682 27.10299812 -132.22216797 6.87255859 C-96.11668065 -27.79608761 -39.65523895 -28.9152784 0 0 Z M-112.28125 31.1875 C-127.69764523 47.13549506 -134.69902136 65.45566138 -134.46850586 87.51367188 C-133.82647748 107.83060125 -125.13938671 126.33704134 -110.51171875 140.390625 C-95.54945993 153.42441491 -77.81576198 159.999611 -57.96484375 159.375 C-38.4691238 157.53106984 -20.55350126 148.90990738 -7.5078125 134.1875 C6.69023817 116.21286346 12.01803195 96.54069611 10 74 C7.33351166 53.72357827 -5.03960938 35.27105409 -21 23 C-49.88296742 3.82066763 -87.4180791 6.66104818 -112.28125 31.1875 Z M103.078125 39.1875 C93.5905467 52.02783154 91.69243667 66.5511393 93 82 C95.42626134 95.31686621 102.77269977 107.75859983 113.60546875 115.9765625 C126.84963713 124.75619457 140.8190727 128.3220722 156.5859375 125.31640625 C171.03855774 121.17972991 182.82089459 112.76357304 190.5 99.76953125 C197.53890672 86.7732165 199.83845508 72.40785036 196 58 C190.91676311 42.61702093 182.1681951 31.32780246 167.9609375 23.47265625 C144.37041138 11.73963732 119.73456672 20.08500739 103.078125 39.1875 Z M64 195 C61.192137 198.57647107 58.54375988 202.2317368 56 206 C58.6871193 209.18211496 61.36610112 212.33401898 64.23828125 215.3515625 C73.62550978 225.262799 81.15683173 236.47093124 87.9765625 248.27734375 C88.88424534 249.96649531 88.88424534 249.96649531 90 251 C92.00542353 251.10112458 94.01446103 251.13077535 96.02243042 251.13371277 C97.98690125 251.14011024 97.98690125 251.14011024 99.99105835 251.14663696 C101.45611575 251.1462874 102.92117313 251.14582584 104.38623047 251.14526367 C105.91843752 251.14825354 107.45064382 251.15165566 108.98284912 251.15544128 C113.15641596 251.16430375 117.32996232 251.16662036 121.50353765 251.16725707 C124.98276682 251.16820444 128.46199117 251.17188081 131.9412185 251.17542917 C140.14782651 251.18358251 148.35442355 251.18601263 156.56103516 251.18530273 C165.03670645 251.18470192 173.5123141 251.19525235 181.98796928 251.2110464 C189.25507053 251.22410759 196.52215094 251.22948722 203.78926384 251.22884732 C208.13380232 251.22859189 212.4782843 251.23146804 216.82281113 251.24202538 C220.90869146 251.25168235 224.994461 251.25180213 229.08034515 251.24450874 C230.58199093 251.24345985 232.08364351 251.24584375 233.58527756 251.2518692 C235.63137197 251.25954895 237.67750387 251.25376323 239.72360229 251.24723816 C240.86993574 251.24778293 242.01626919 251.24832769 243.19734001 251.24888897 C246.20838108 251.20696998 246.20838108 251.20696998 249 249 C250.71435615 231.64214395 238.05875253 209.84415043 227.45849609 196.72363281 C208.13825206 173.89120515 181.94891498 159.49574292 152 157 C117.52397552 154.7232814 86.86509093 169.758868 64 195 Z M-166.61376953 236.44970703 C-183.81858945 255.69074375 -201.57698403 285.26191665 -201.35546875 311.84375 C-200.77035911 315.39298652 -198.79016583 316.92359752 -196 319 C-193.18195946 319.93934685 -191.471461 320.12683614 -188.55586529 320.13142776 C-187.64094269 320.13526891 -186.7260201 320.13911005 -185.78337258 320.1430676 C-184.77677537 320.14220112 -183.77017816 320.14133463 -182.733078 320.14044189 C-181.6648574 320.14341302 -180.59663681 320.14638414 -179.49604589 320.1494453 C-175.8986419 320.15815168 -172.30127112 320.15964218 -168.70385742 320.16113281 C-166.13190133 320.16575959 -163.55994593 320.17078406 -160.98799133 320.17617798 C-153.9879911 320.18976337 -146.98799659 320.19578631 -139.98798537 320.20018864 C-135.61776022 320.20295066 -131.24753727 320.20718793 -126.87731361 320.21169281 C-114.77914538 320.22388564 -102.68097892 320.234185 -90.58280468 320.2375679 C-89.80840527 320.23778747 -89.03400585 320.23800703 -88.23613979 320.23823325 C-87.45988048 320.23845153 -86.68362116 320.23866981 -85.88383883 320.2388947 C-84.31082419 320.23933817 -82.73780956 320.23978473 -81.16479492 320.24023438 C-80.38452422 320.2404558 -79.60425352 320.24067723 -78.80033825 320.24090537 C-66.15602999 320.24485372 -53.51177935 320.2623088 -40.86749335 320.2855939 C-27.88804467 320.30930343 -14.90862491 320.32176957 -1.92915422 320.32293582 C5.35925699 320.32385279 12.64759312 320.32961074 19.93598366 320.34775543 C26.79038436 320.36475948 33.64464027 320.36641201 40.49905586 320.35761642 C43.01696911 320.35684381 45.53488989 320.36121808 48.05278397 320.37107468 C51.48606982 320.38372809 54.9188452 320.37795296 58.35212708 320.36749268 C59.85198464 320.37957728 59.85198464 320.37957728 61.38214236 320.39190602 C66.65338365 320.35426114 70.48981074 320.05238008 75 317 C77.83657367 312.7451395 77.45182587 308.75981843 76.65234375 303.87646484 C76.16476775 301.62552313 75.60346204 299.41017777 75 297.1875 C74.66995972 295.96123901 74.66995972 295.96123901 74.33325195 294.71020508 C64.12087919 258.48381257 39.95079914 226.80454154 7.1328125 208.19921875 C-51.02151671 176.19133574 -121.52932198 187.65078389 -166.61376953 236.44970703 Z " fill="#000000" transform="translate(232,91)"/>
</svg>
