<?xml version="1.0" encoding="UTF-8"?>
<svg version="1.1" xmlns="http://www.w3.org/2000/svg" width="512" height="512">
<path d="M0 0 C10.67626916 8.11597264 18.37391422 19.50201028 21.09375 32.765625 C22.9936679 47.68556851 21.02154133 61.32880227 12.4921875 73.89453125 C9.34013578 77.74181163 6.00849698 81.37822177 2.4921875 84.89453125 C3.44738281 85.23484375 4.40257812 85.57515625 5.38671875 85.92578125 C24.18138804 92.86670314 37.71957289 104.88332019 46.4921875 122.89453125 C48.48052694 127.51093673 50.36977416 131.90021392 50.6796875 136.94921875 C51.24281509 140.15471702 51.24281509 140.15471702 54.30859375 142.02734375 C55.54837624 142.70790592 56.79790696 143.37089564 58.0546875 144.01953125 C97.15250616 165.9062192 124.79188274 203.20821699 137.71875 245.76953125 C138.4921875 248.89453125 138.4921875 248.89453125 138.4921875 252.89453125 C139.22179687 253.01054687 139.95140625 253.1265625 140.703125 253.24609375 C150.72873375 255.57697758 160.11809581 264.17111076 165.62402344 272.63427734 C173.4923709 286.17472803 175.52591652 300.24016792 172.83984375 315.6328125 C169.63489019 327.11837568 163.24528741 335.95990302 154.4921875 343.89453125 C155.30300781 344.17425781 156.11382812 344.45398438 156.94921875 344.7421875 C175.22390996 351.35851924 189.86119138 362.60210246 198.3671875 380.45703125 C201.78949559 388.65876959 203.97995427 397.01582192 204.4921875 405.89453125 C204.54503906 406.673125 204.59789062 407.45171875 204.65234375 408.25390625 C205.08584793 420.09045526 201.62988476 431.00308169 193.7109375 439.89453125 C187.65944049 445.64841365 180.34963927 449.13998695 172.20703125 450.81640625 C167.40695317 451.82912939 163.03813629 453.52063888 158.4921875 455.33203125 C132.18432594 465.29490871 103.93841353 464.42009959 78.1015625 453.36328125 C74.25365618 451.79746656 70.423823 450.52149907 66.4296875 449.39453125 C65.24246094 449.05421875 64.05523437 448.71390625 62.83203125 448.36328125 C56.48641816 447.47266889 51.59124302 450.77545985 46.1171875 453.64453125 C4.6102691 474.75746145 -44.09628267 476.96369691 -88.1328125 462.64453125 C-98.43198618 459.170283 -109.08975716 455.12060242 -118.20703125 449.1171875 C-120.93868853 447.66555977 -121.89582513 447.74264456 -124.8203125 448.58203125 C-125.51769531 448.77152344 -126.21507812 448.96101563 -126.93359375 449.15625 C-127.78308594 449.39988281 -128.63257813 449.64351563 -129.5078125 449.89453125 C-130.76464844 450.19101562 -132.02148438 450.4875 -133.31640625 450.79296875 C-137.4418265 451.81674297 -141.31213595 453.26718063 -145.2578125 454.83203125 C-172.235415 465.21941578 -201.01322617 464.46868932 -227.5078125 452.89453125 C-231.05254254 451.37218637 -234.4209786 450.43064085 -238.1953125 449.64453125 C-248.96137861 446.98608004 -256.89819648 441.32193763 -262.75390625 431.88671875 C-269.61931813 419.06122403 -268.99624551 403.58620935 -265.14599609 389.83886719 C-259.26762555 371.92940163 -247.18433901 357.59641801 -230.5078125 348.89453125 C-221.77716235 344.89453125 -221.77716235 344.89453125 -217.5078125 344.89453125 C-217.93191406 344.43304688 -218.35601562 343.9715625 -218.79296875 343.49609375 C-232.30159055 328.47331874 -237.46654921 315.28964354 -236.68701172 295.25048828 C-235.76484468 283.12663011 -229.14025054 270.9517068 -220.2109375 262.796875 C-207.84777274 252.89453125 -207.84777274 252.89453125 -201.5078125 252.89453125 C-201.40597656 251.76015625 -201.30414063 250.62578125 -201.19921875 249.45703125 C-200.59410263 244.66661634 -199.15172858 240.3944102 -197.4453125 235.89453125 C-197.13658203 235.07073975 -196.82785156 234.24694824 -196.50976562 233.39819336 C-193.39026182 225.27201098 -189.65162856 217.54223227 -185.5078125 209.89453125 C-184.93160156 208.82589844 -184.35539062 207.75726563 -183.76171875 206.65625 C-179.61240732 199.26798415 -174.81007023 192.49600428 -169.5078125 185.89453125 C-169.06308594 185.34007324 -168.61835938 184.78561523 -168.16015625 184.21435547 C-155.70275939 168.84647348 -140.78515625 153.91130655 -122.8671875 145.01171875 C-117.0438555 142.32242043 -117.0438555 142.32242043 -113.390625 137.3671875 C-112.95641493 135.37035725 -112.57897031 133.36059108 -112.25 131.34375 C-109.79000726 119.91125743 -102.82887934 109.85693142 -94.5078125 101.89453125 C-93.82203125 101.18941406 -93.13625 100.48429687 -92.4296875 99.7578125 C-84.92110854 92.45780518 -75.43607018 87.99805338 -65.5078125 84.89453125 C-66.01570312 84.43304688 -66.52359375 83.9715625 -67.046875 83.49609375 C-77.21823007 73.85806816 -83.87841229 61.57012718 -84.7109375 47.44921875 C-84.9259728 30.56894791 -80.65340974 17.55948312 -68.92578125 5.18359375 C-50.15140212 -12.58988956 -21.32677158 -14.68147319 0 0 Z M-60.15625 20.92578125 C-66.3227542 29.46864561 -68.5743402 38.42453393 -67.5078125 48.89453125 C-65.92819174 58.24417848 -61.09019638 66.31170982 -53.6953125 72.26953125 C-45.31777014 77.95659366 -35.85784739 80.96512457 -25.71875 79.48828125 C-15.95820551 77.17874396 -7.10708352 72.39342476 -1.5078125 63.89453125 C4.22762494 53.9510283 6.31740783 44.24974374 3.4921875 32.89453125 C0.15654614 23.10582671 -6.42342529 15.6553331 -15.5078125 10.89453125 C-16.09691406 10.55679688 -16.68601562 10.2190625 -17.29296875 9.87109375 C-31.85359454 2.89479392 -50.44113784 8.954553 -60.15625 20.92578125 Z M-86.5078125 117.89453125 C-94.33358112 127.87913259 -97.80888113 138.06664259 -98.0703125 150.64453125 C-98.09730225 151.43666016 -98.12429199 152.22878906 -98.15209961 153.04492188 C-98.11190714 159.14396962 -96.2777524 163.13405262 -92.5078125 167.89453125 C-89.07517912 171.23914839 -86.02757802 172.46461919 -81.5078125 173.89453125 C-81.33652832 172.94610352 -81.16524414 171.99767578 -80.98876953 171.02050781 C-80.35009169 167.49332217 -79.70335213 163.96765431 -79.05419922 160.44238281 C-78.77466151 158.91804393 -78.49729531 157.39330514 -78.22216797 155.86816406 C-77.82573092 153.67273292 -77.42143993 151.47887079 -77.015625 149.28515625 C-76.8947049 148.60584045 -76.77378479 147.92652466 -76.64920044 147.22662354 C-76.0153628 143.84349585 -75.38640859 140.81165014 -73.5078125 137.89453125 C-70.30827169 136.29476084 -66.98025904 136.40455413 -63.5078125 136.89453125 C-61.5078125 138.39453125 -61.5078125 138.39453125 -60.5078125 140.89453125 C-59.96180933 148.85057749 -61.64222075 156.58957867 -63.0078125 164.39453125 C-63.24930333 165.80328177 -63.49019394 167.21213532 -63.73046875 168.62109375 C-64.31599616 172.04678928 -64.90965188 175.47101621 -65.5078125 178.89453125 C-43.68462019 188.0387562 -20.67269648 188.68405421 1.4921875 179.89453125 C2.94366857 176.9915691 2.11458498 175.09134238 1.49609375 171.92578125 C1.26728516 170.7140625 1.03847656 169.50234375 0.80273438 168.25390625 C0.31001548 165.71183695 -0.18472561 163.17015864 -0.68164062 160.62890625 C-3.56329584 145.32465333 -3.56329584 145.32465333 -2.5078125 139.89453125 C-0.89660538 137.88986044 -0.10605341 137.0175566 2.4296875 136.49609375 C3.1103125 136.50382812 3.7909375 136.5115625 4.4921875 136.51953125 C5.513125 136.50792969 5.513125 136.50792969 6.5546875 136.49609375 C9.12856207 137.0253986 9.9339268 137.78656342 11.4921875 139.89453125 C12.30078125 142.29296875 12.30078125 142.29296875 12.9296875 145.26953125 C13.17203125 146.40519531 13.414375 147.54085937 13.6640625 148.7109375 C15.34158434 157.0922873 16.93202723 165.49064271 18.4921875 173.89453125 C22.24709799 172.77176535 25.206692 171.72251336 28.1796875 169.14453125 C28.74042969 168.6753125 29.30117188 168.20609375 29.87890625 167.72265625 C34.50447726 162.4810891 35.01416855 157.44819096 34.9296875 150.76953125 C34.91723999 149.50592773 34.91723999 149.50592773 34.90454102 148.21679688 C34.54785442 134.96481073 29.1954185 123.77819478 20.1796875 114.08203125 C9.00201763 103.6760936 -4.90841579 99.76625175 -19.82421875 99.69140625 C-20.7171312 99.68570618 -21.61004364 99.6800061 -22.53001404 99.6741333 C-24.41688871 99.66471461 -26.3037796 99.65816181 -28.19067383 99.65429688 C-31.03692446 99.64464448 -33.88243573 99.61361324 -36.72851562 99.58203125 C-56.49629905 99.46573425 -72.49079752 102.72936487 -86.5078125 117.89453125 Z M-122.8828125 165.20703125 C-123.50841064 165.6563501 -124.13400879 166.10566895 -124.77856445 166.56860352 C-131.14191016 171.22732338 -136.84257539 176.4222518 -142.5078125 181.89453125 C-143.43335938 182.75691406 -144.35890625 183.61929688 -145.3125 184.5078125 C-159.79180934 198.3513448 -169.75842064 215.25126804 -177.9453125 233.39453125 C-178.44067505 234.48858276 -178.44067505 234.48858276 -178.94604492 235.60473633 C-180.99980445 240.30188485 -182.38657609 244.89122506 -183.5078125 249.89453125 C-182.20070313 250.02408203 -182.20070313 250.02408203 -180.8671875 250.15625 C-165.6192083 251.95498348 -152.37174058 257.41234913 -142.359375 269.359375 C-133.58315824 281.37575618 -129.7380675 296.25845788 -131.9765625 310.9765625 C-134.40314279 323.15279575 -139.45079828 333.30668669 -148.5078125 341.89453125 C-149.1678125 342.22453125 -149.8278125 342.55453125 -150.5078125 342.89453125 C-150.5078125 343.55453125 -150.5078125 344.21453125 -150.5078125 344.89453125 C-149.63640625 345.16265625 -148.765 345.43078125 -147.8671875 345.70703125 C-129.59750035 351.71783741 -116.3704749 362.67123089 -107.5078125 379.89453125 C-101.41094672 393.77797606 -98.02800717 411.68374634 -103.3828125 426.39453125 C-104.04874004 427.91383261 -104.75276089 429.41749598 -105.5078125 430.89453125 C-106.06855469 432.02375 -106.06855469 432.02375 -106.640625 433.17578125 C-106.92679687 433.74296875 -107.21296875 434.31015625 -107.5078125 434.89453125 C-70.73488874 454.91939072 -28.17007071 460.25762772 12.1796875 448.58203125 C23.41692675 445.1783819 34.44771555 441.04643006 44.4921875 434.89453125 C44.14285156 434.146875 43.79351562 433.39921875 43.43359375 432.62890625 C42.75103516 431.15164063 42.75103516 431.15164063 42.0546875 429.64453125 C41.60222656 428.67 41.14976562 427.69546875 40.68359375 426.69140625 C35.17856429 413.76812398 37.90502492 396.74131694 42.4921875 383.89453125 C49.16198898 367.85438367 61.86011305 354.74769046 77.9296875 348.01953125 C78.89777344 347.65085937 79.86585938 347.2821875 80.86328125 346.90234375 C83.16243497 346.02094455 85.3142002 345.03758842 87.4921875 343.89453125 C87.06808594 343.51683594 86.64398438 343.13914062 86.20703125 342.75 C75.73428801 332.92173327 69.43035001 320.32165826 68.25390625 305.9921875 C67.85045614 289.49320154 73.2025503 275.9189854 84.3671875 263.9296875 C94.58892534 254.14011872 106.78032809 251.41584704 120.4921875 249.89453125 C116.07896528 232.14283889 107.36239246 215.52300393 96.4921875 200.89453125 C95.79867188 199.95867187 95.10515625 199.0228125 94.390625 198.05859375 C84.44974385 185.36256202 72.64665726 174.1894123 59.4921875 164.89453125 C58.44160156 164.12496094 57.39101563 163.35539063 56.30859375 162.5625 C55.37917969 162.01207031 54.44976562 161.46164063 53.4921875 160.89453125 C52.5021875 161.22453125 51.5121875 161.55453125 50.4921875 161.89453125 C49.45599815 164.18502291 49.45599815 164.18502291 48.6796875 166.95703125 C45.40394742 176.46406636 40.31197406 182.09331638 31.4921875 186.89453125 C27.50806591 188.77973821 23.55572749 189.91613305 19.2421875 190.76953125 C15.55616709 191.52306183 12.36718995 192.74381974 8.9296875 194.26953125 C4.08230912 196.37006188 -0.70685641 197.88053087 -5.8203125 199.14453125 C-6.47781494 199.30743652 -7.13531738 199.4703418 -7.81274414 199.63818359 C-30.02983615 204.9182148 -53.08750923 202.38460587 -73.90625 193.3359375 C-77.71765048 191.81055054 -81.46480266 190.7892126 -85.4453125 189.83203125 C-91.29690181 188.35843353 -95.73542834 186.55733609 -100.5078125 182.89453125 C-101.3740625 182.33765625 -102.2403125 181.78078125 -103.1328125 181.20703125 C-108.82580293 175.66385635 -112.02787818 168.3343342 -114.5078125 160.89453125 C-117.85728778 160.89453125 -120.2464449 163.31155992 -122.8828125 165.20703125 Z M-210.390625 277.5390625 C-218.10753615 286.1244821 -220.00409862 294.86265183 -219.78515625 306.0625 C-219.09498277 315.59855888 -214.34267086 323.42744505 -207.40234375 329.83984375 C-199.21854574 336.57281354 -190.67241171 339.59399068 -180 338.6796875 C-169.52112268 336.95510738 -161.18254069 332.14503047 -154.5078125 323.89453125 C-149.24888537 316.36075014 -146.71374655 308.10569633 -147.5078125 298.89453125 C-149.69277729 286.84968336 -155.52506502 278.01126413 -165.5078125 270.89453125 C-181.15905486 262.37986166 -197.60275978 265.74679232 -210.390625 277.5390625 Z M95.1796875 276.64453125 C88.16511227 284.19759913 85.11957995 292.11869282 84.1796875 302.26953125 C85.14637383 313.48309263 89.30277259 322.57538881 97.49609375 330.29296875 C105.38873737 336.62561823 115.1777159 339.4000448 125.26171875 338.703125 C135.07547326 337.02981202 142.85206904 332.28196932 149.4921875 324.89453125 C156.05009547 314.97535246 157.34115627 306.62464909 156.4921875 294.89453125 C153.9652935 284.07942494 146.77355083 275.69730733 137.4921875 269.89453125 C123.01954173 263.07064127 106.8439824 265.6586475 95.1796875 276.64453125 Z M-239.55078125 378.125 C-247.56969802 387.78531551 -251.13347985 399.95133435 -250.7421875 412.453125 C-249.94874376 420.71816397 -247.05926437 424.99278549 -240.76171875 430.36328125 C-238.59852486 431.83290344 -237.06384505 432.47531862 -234.5078125 432.89453125 C-232.0533211 425.14648237 -230.84129458 417.14078626 -229.45117188 409.14648438 C-229.24427734 408.01791016 -229.03738281 406.88933594 -228.82421875 405.7265625 C-228.64318604 404.70280518 -228.46215332 403.67904785 -228.27563477 402.62426758 C-227.46606004 399.74609429 -226.52823739 398.0797187 -224.5078125 395.89453125 C-222.5703125 395.43359375 -222.5703125 395.43359375 -220.5078125 395.51953125 C-219.8271875 395.53242188 -219.1465625 395.5453125 -218.4453125 395.55859375 C-216.5078125 395.89453125 -216.5078125 395.89453125 -213.5078125 397.89453125 C-211.53915863 405.45015189 -213.49194984 412.56879401 -215.0078125 420.08203125 C-215.50591732 422.57383255 -215.99584537 425.06728594 -216.4765625 427.5625 C-216.69763672 428.65844482 -216.91871094 429.75438965 -217.14648438 430.88354492 C-217.50506973 433.87167541 -217.28247123 436.00664907 -216.5078125 438.89453125 C-194.14197096 447.06361522 -172.89166372 446.70776234 -150.5078125 438.89453125 C-150.88470507 429.96217731 -152.43062416 421.3824349 -154.22363281 412.63818359 C-156.29712847 402.05214766 -156.29712847 402.05214766 -153.4453125 397.01953125 C-150.36316008 395.22989436 -146.97230534 395.18207506 -143.5078125 395.89453125 C-140.4563916 398.04539654 -139.93590526 400.49122 -139.27877808 404.06202698 C-139.16615631 404.74022995 -139.05353455 405.41843292 -138.9375 406.1171875 C-138.81094025 406.81847275 -138.68438049 407.519758 -138.5539856 408.24229431 C-138.15240377 410.47872077 -137.76699718 412.71755674 -137.3828125 414.95703125 C-136.98846561 417.19942888 -136.59079724 419.44118776 -136.19021606 421.68247986 C-135.94215441 423.07622078 -135.69826575 424.47071213 -135.45895386 425.86598206 C-134.83765339 429.48900169 -134.83765339 429.48900169 -133.5078125 432.89453125 C-127.18526269 431.23862535 -122.62814228 428.1336759 -119.1328125 422.64453125 C-114.89084484 413.21595608 -116.84754702 400.28084247 -120.1796875 390.89453125 C-126.0675631 377.5948593 -135.00349501 368.32185433 -148.41796875 362.66796875 C-156.20916295 359.75282476 -162.91959489 358.73054705 -171.19921875 358.69140625 C-172.14030991 358.68570618 -173.08140106 358.6800061 -174.05101013 358.6741333 C-176.0422148 358.66470202 -178.03343494 358.65815677 -180.0246582 358.65429688 C-183.03560554 358.64464253 -186.04585478 358.61362241 -189.05664062 358.58203125 C-209.98087843 358.46621764 -225.0189163 362.25942661 -239.55078125 378.125 Z M65.4921875 376.89453125 C56.49490051 389.02635694 53.41854361 402.00355733 54.4921875 416.89453125 C55.93431745 423.40707988 59.11195596 427.01780595 64.4921875 430.80078125 C66.5049612 431.90151687 68.26982156 432.38292409 70.4921875 432.89453125 C70.87310547 430.97253906 70.87310547 430.97253906 71.26171875 429.01171875 C72.15574448 424.50842958 73.06248792 420.00776954 73.97070312 415.50732422 C74.43283644 413.19189786 74.87973639 410.87428784 75.3203125 408.5546875 C75.56265625 407.32621094 75.805 406.09773438 76.0546875 404.83203125 C76.26222656 403.74792969 76.46976562 402.66382813 76.68359375 401.546875 C77.53648086 398.74924047 78.10292272 397.5529621 80.4921875 395.89453125 C82.4296875 395.49609375 82.4296875 395.49609375 84.4921875 395.51953125 C85.513125 395.50792969 85.513125 395.50792969 86.5546875 395.49609375 C89.10501104 396.02055545 89.88641116 396.86127575 91.4921875 398.89453125 C92.95884634 407.30055478 90.57177213 416.34684545 88.9921875 424.58203125 C88.75371094 425.86787109 88.51523437 427.15371094 88.26953125 428.47851562 C87.68581055 431.61893301 87.09320964 434.75738751 86.4921875 437.89453125 C105.95683757 446.13442631 128.31600891 448.13431488 148.4921875 440.8046875 C150.5274857 439.91106438 152.51832133 438.91671195 154.4921875 437.89453125 C153.36102708 429.49732864 152.07091433 421.1637253 150.45776367 412.84594727 C148.37357313 401.63956967 148.37357313 401.63956967 151.0546875 397.45703125 C154.43436554 395.29057097 156.55202737 395.33165123 160.4921875 395.89453125 C164.71172887 399.00212691 165.41716544 402.57044541 166.1953125 407.50390625 C166.32282898 408.23071594 166.45034546 408.95752563 166.58172607 409.70635986 C166.98356028 412.01679787 167.36312979 414.33025885 167.7421875 416.64453125 C168.01155774 418.21639726 168.28237533 419.78801598 168.5546875 421.359375 C169.2173184 425.20176492 169.86001458 429.04701792 170.4921875 432.89453125 C177.69049332 430.95042517 181.68092916 428.51373665 185.59765625 422.078125 C189.81963378 412.58363094 187.75275068 401.35751912 184.4921875 391.89453125 C179.11795178 378.80093878 171.20568809 369.31703093 158.171875 363.3828125 C149.59371398 359.97304234 142.12009798 358.73622771 132.95703125 358.69140625 C132.04192276 358.68570618 131.12681427 358.6800061 130.18397522 358.6741333 C128.25002181 358.66471328 126.31605257 358.65816128 124.38208008 358.65429688 C121.46340878 358.64464279 118.54545795 358.61361199 115.62695312 358.58203125 C95.75150909 358.46795046 79.57716917 361.57185348 65.4921875 376.89453125 Z " fill="#000000" transform="translate(287.5078125,25.10546875)"/>
<path d="M0 0 C13.47212109 10.92081871 23.6428353 25.91425388 25.52368164 43.49780273 C25.65819774 46.33799984 25.69054608 49.15295589 25.66015625 51.99609375 C25.64879639 53.49994629 25.64879639 53.49994629 25.63720703 55.03417969 C25.26716306 71.78609723 18.88022393 86.55501324 7.22265625 98.68359375 C-8.37673398 112.33858407 -25.17195438 117.91603947 -45.66601562 116.84326172 C-61.49459804 115.64623432 -76.03150935 107.81175971 -86.921875 96.4453125 C-97.66641178 83.89289955 -103.39238791 68.85194506 -103.21484375 52.37109375 C-103.20654541 51.36780029 -103.19824707 50.36450684 -103.18969727 49.33081055 C-102.78413459 31.41821863 -95.57834966 17.16826508 -82.77734375 4.68359375 C-60.25761949 -16.36990472 -24.83214306 -18.3921587 0 0 Z M-74.77734375 20.68359375 C-84.54241993 33.40135107 -87.43361882 45.92765519 -85.77734375 61.68359375 C-84.93736709 65.6899993 -83.66707844 69.06208982 -81.77734375 72.68359375 C-81.33003906 73.55371094 -80.88273437 74.42382812 -80.421875 75.3203125 C-73.93853141 86.94861507 -64.18746112 94.60453033 -51.40234375 98.62109375 C-37.83761531 101.73942213 -24.97667681 99.58859081 -13.02734375 92.55859375 C-2.21124759 85.12744763 5.43708744 74.6580392 8.22265625 61.68359375 C9.60677036 45.85887393 7.05040947 33.48297985 -2.77734375 20.68359375 C-11.75882226 10.88409954 -23.2038739 5.86021463 -36.33984375 4.3984375 C-50.95919169 3.85958333 -64.96176934 9.9740358 -74.77734375 20.68359375 Z " fill="#000000" transform="translate(294.77734375,268.31640625)"/>
</svg>
