<?xml version="1.0" encoding="UTF-8"?>
<svg version="1.1" xmlns="http://www.w3.org/2000/svg" width="512" height="512">
<path d="M0 0 C0.81176193 -0.00979385 1.62352386 -0.01958771 2.45988464 -0.02967834 C20.42209711 -0.20170332 37.75572087 -0.02748286 55.3125 4.23828125 C56.18745117 4.44195312 57.06240234 4.645625 57.96386719 4.85546875 C101.27108341 15.18416809 139.81787087 41.70916841 166.3125 77.23828125 C166.93769531 78.0684375 167.56289063 78.89859375 168.20703125 79.75390625 C178.44026406 93.8455711 185.97688889 109.06414951 192.3125 125.23828125 C192.57401855 125.90005371 192.83553711 126.56182617 193.10498047 127.24365234 C199.58465757 143.99368511 203.37124719 162.96783954 203.55078125 180.92578125 C203.56052979 181.73767914 203.57027832 182.54957703 203.58032227 183.38607788 C203.75173951 201.36538996 203.50155732 218.65052935 199.3125 236.23828125 C199.14121582 237.01075195 198.96993164 237.78322266 198.79345703 238.57910156 C187.707873 287.88386049 154.44319235 329.94625726 112.37890625 356.77734375 C101.54865299 363.49054619 90.16158642 368.59684487 78.3125 373.23828125 C77.65072754 373.4997998 76.98895508 373.76131836 76.30712891 374.03076172 C59.55709669 380.51043861 40.58294134 384.29702964 22.625 384.4765625 C21.81305679 384.48631104 21.00111359 384.49605957 20.16456604 384.50610352 C2.22839048 384.67710236 -15.16125245 384.55948623 -32.6875 380.23828125 C-33.47012207 380.04572754 -34.25274414 379.85317383 -35.05908203 379.65478516 C-40.0100204 378.39037866 -44.85508187 376.89541844 -49.6875 375.23828125 C-50.68354248 374.90207764 -50.68354248 374.90207764 -51.69970703 374.55908203 C-88.47501105 361.98109367 -120.45970552 338.28077095 -143.6875 307.23828125 C-144.31398437 306.40683594 -144.94046875 305.57539063 -145.5859375 304.71875 C-162.43892395 281.49644238 -173.5754003 254.42567961 -178.6875 226.23828125 C-178.86700195 225.25021484 -179.04650391 224.26214844 -179.23144531 223.24414062 C-180.88108132 213.1102407 -181.08528551 203.11097269 -181.0625 192.86328125 C-181.06228851 191.98387878 -181.06207703 191.10447632 -181.06185913 190.19842529 C-181.02756773 175.87762322 -180.01570572 162.21174879 -176.6875 148.23828125 C-176.51621582 147.46581055 -176.34493164 146.69333984 -176.16845703 145.89746094 C-166.42970462 102.58293294 -138.98291779 63.55864023 -103.6875 37.23828125 C-102.85734375 36.61308594 -102.0271875 35.98789063 -101.171875 35.34375 C-87.08021015 25.11051719 -71.86163174 17.57389236 -55.6875 11.23828125 C-55.02572754 10.9767627 -54.36395508 10.71524414 -53.68212891 10.44580078 C-36.9320364 3.96610057 -17.95798621 0.17965746 0 0 Z " fill="#138EF0" transform="translate(244.6875,63.76171875)"/>
<path d="M0 0 C9.28946857 5.07347899 14.13965883 13.52180736 17.30322266 23.35107422 C18.91380086 30.73609245 18.50951736 38.24247151 18.3515625 45.76171875 C18.33145062 47.44138476 18.31320821 49.12107424 18.296875 50.80078125 C18.25328711 54.87168487 18.18452532 58.94143504 18.1015625 63.01171875 C19.97690674 62.98029785 19.97690674 62.98029785 21.89013672 62.94824219 C26.56791545 62.8753571 31.24564489 62.82974383 35.92382812 62.79199219 C37.94116685 62.77198659 39.9584484 62.74477315 41.97558594 62.70996094 C44.89011823 62.66095298 47.80387809 62.63863911 50.71875 62.62109375 C51.60770966 62.60044861 52.49666931 62.57980347 53.41256714 62.55853271 C60.83293708 62.5559263 67.67366515 64.24852585 73.5390625 68.9765625 C74.0546875 69.62753906 74.5703125 70.27851563 75.1015625 70.94921875 C75.6378125 71.59761719 76.1740625 72.24601562 76.7265625 72.9140625 C80.48655158 78.6501822 81.04267905 84.30738372 80.1015625 91.01171875 C78.92179328 93.78127535 77.59032045 96.26654395 76 98.8203125 C74.83950086 100.96603309 74.83950086 100.96603309 75.7890625 103.0234375 C76.2221875 103.67957031 76.6553125 104.33570313 77.1015625 105.01171875 C82.00544568 112.94709336 83.32317258 119.68305992 82.1015625 129.01171875 C80.82378869 133.03112375 78.95658369 136.01419403 76.2265625 139.19921875 C75.8553125 139.79734375 75.4840625 140.39546875 75.1015625 141.01171875 C75.86807819 143.92447836 77.17008826 146.12504981 78.7265625 148.69921875 C81.121024 154.46769419 80.89315717 160.35836207 78.9140625 166.26171875 C76.87829527 170.98316952 74.29011449 175.05543064 69.4375 177.17578125 C68.66664063 177.45164062 67.89578125 177.7275 67.1015625 178.01171875 C67.18857422 179.02878906 67.18857422 179.02878906 67.27734375 180.06640625 C67.63703292 187.48628001 66.52281957 192.9431183 62.1015625 199.01171875 C55.79389309 205.15406618 49.72864065 207.31520185 40.98168945 207.28637695 C40.17772232 207.29148788 39.37375519 207.29659882 38.54542542 207.30186462 C35.89348859 207.31573769 33.24181251 207.31480486 30.58984375 207.3125 C28.73764449 207.31638962 26.88544612 207.32072484 25.0332489 207.32548523 C21.15047313 207.3329436 17.26778828 207.33265999 13.38500977 207.32739258 C8.43003907 207.32161389 3.47544412 207.33849199 -1.47946453 207.36173725 C-5.30668789 207.3765362 -9.1338222 207.37733767 -12.96106911 207.37422752 C-14.78655552 207.37473815 -16.61204725 207.37992696 -18.43750572 207.39003944 C-32.38102211 207.45777501 -43.28287056 207.01112509 -53.8984375 197.01171875 C-57.68609757 193.11155393 -61.31146578 189.09643013 -64.8984375 185.01171875 C-65.61902344 184.19316406 -66.33960938 183.37460937 -67.08203125 182.53125 C-68.24552563 181.20326993 -69.40516724 179.87189015 -70.55859375 178.53515625 C-71.62731654 177.3199904 -72.7541481 176.15600815 -73.8984375 175.01171875 C-74.16586304 171.99552917 -74.16586304 171.99552917 -74.18896484 168.07104492 C-74.19568207 167.35702011 -74.20239929 166.6429953 -74.20932007 165.90733337 C-74.22836411 163.5397145 -74.23222777 161.17237826 -74.234375 158.8046875 C-74.24079973 157.16042463 -74.24752784 155.51616291 -74.25454712 153.87190247 C-74.26653677 150.42100373 -74.27022634 146.97020521 -74.26904297 143.51928711 C-74.26883996 139.10057803 -74.29611492 134.68251347 -74.33058739 130.26395702 C-74.35284658 126.86584025 -74.35688078 123.46787864 -74.35582352 120.06969643 C-74.35818201 118.44102067 -74.36701955 116.8123408 -74.38248825 115.1837368 C-74.40212441 112.90222772 -74.39632029 110.62210849 -74.38427734 108.34057617 C-74.38712738 107.04310959 -74.38997742 105.74564301 -74.39291382 104.40885925 C-73.81263536 100.42224277 -72.71077631 98.83998515 -69.8984375 96.01171875 C-67.70682782 94.49912164 -65.55644397 93.11408471 -63.2734375 91.76171875 C-56.84617798 87.78908259 -51.25711139 83.37039264 -45.8984375 78.01171875 C-45.00511719 77.11839844 -45.00511719 77.11839844 -44.09375 76.20703125 C-40.15745034 71.9573943 -38.02202778 67.35881018 -35.8984375 62.01171875 C-35.4034375 61.02171875 -35.4034375 61.02171875 -34.8984375 60.01171875 C-34.81089484 58.60893912 -34.78365697 57.20213168 -34.78833008 55.79663086 C-34.78775101 54.92489731 -34.78717194 54.05316376 -34.78657532 53.15501404 C-34.78868515 52.20925003 -34.79079498 51.26348602 -34.79296875 50.2890625 C-34.77950387 48.28579658 -34.76447912 46.28254065 -34.74804688 44.27929688 C-34.72528648 41.12147612 -34.71087586 37.96477598 -34.72338867 34.80688477 C-34.73225524 31.75846232 -34.70317588 28.71225552 -34.66796875 25.6640625 C-34.68019974 24.73246811 -34.69243073 23.80087372 -34.70503235 22.84104919 C-34.5574717 14.76941332 -31.4258202 9.42172795 -25.66796875 3.85546875 C-25.02214844 3.41203125 -24.37632812 2.96859375 -23.7109375 2.51171875 C-23.05738281 2.04765625 -22.40382813 1.58359375 -21.73046875 1.10546875 C-15.57435057 -2.56982569 -6.60577037 -2.25237184 0 0 Z " fill="#FDFEFE" transform="translate(290.8984375,139.98828125)"/>
<path d="M0 0 C2.2675394 -0.00435414 4.53310012 -0.04063768 6.80029297 -0.07861328 C14.36187714 -0.13948896 20.66923907 -0.18452941 27.03857422 4.37060547 C29.09716797 6.65966797 29.09716797 6.65966797 30.47607422 8.99560547 C30.94916016 9.77162109 31.42224609 10.54763672 31.90966797 11.34716797 C34.27746723 15.59118186 34.19334075 19.12926036 34.19970703 23.91601562 C34.20715439 25.24317093 34.20715439 25.24317093 34.2147522 26.59713745 C34.22939817 29.53465546 34.23618142 32.47211939 34.24169922 35.40966797 C34.24745061 37.45030723 34.25320834 39.49094647 34.25897217 41.53158569 C34.26949041 45.81728365 34.27532705 50.10296282 34.27880859 54.38867188 C34.28428166 59.86963972 34.30828082 65.35035766 34.33678055 70.83124733 C34.35544714 75.05041212 34.36061477 79.26951735 34.36214447 83.48871994 C34.36516467 85.50845067 34.37317176 87.52818051 34.38632965 89.54787064 C34.40346692 92.38171326 34.40149065 95.21495409 34.39501953 98.04882812 C34.40884171 99.2913736 34.40884171 99.2913736 34.42294312 100.559021 C34.37477467 107.32446679 32.9223337 113.15971318 28.78857422 118.68310547 C21.91889295 125.39665762 13.90285293 124.89929736 4.85083008 124.87158203 C2.60937175 124.87060907 0.3713371 124.91230853 -1.86962891 124.95654297 C-9.55495572 125.02035005 -16.06541683 124.93237355 -21.96142578 119.37060547 C-27.60471834 113.43029751 -28.26173934 108.05938072 -28.26782227 100.20922852 C-28.27614578 99.29475952 -28.2844693 98.38029053 -28.29304504 97.43811035 C-28.31711079 94.41947146 -28.32591314 91.40104883 -28.33251953 88.38232422 C-28.34148865 86.27871131 -28.35061055 84.17509904 -28.35987854 82.07148743 C-28.37636192 77.66247 -28.38406744 73.25352845 -28.38696289 68.84448242 C-28.39234511 63.20534235 -28.43002183 57.56691913 -28.47570705 51.92798138 C-28.50550539 47.58270182 -28.51268706 43.23759429 -28.51368904 38.89222145 C-28.51788601 36.81385834 -28.53029918 34.73549447 -28.55120659 32.65723228 C-28.57817723 29.74434646 -28.57327836 26.83311453 -28.56079102 23.92016602 C-28.57562531 23.06846329 -28.59045959 22.21676056 -28.60574341 21.33924866 C-28.53102114 15.19290879 -26.81093641 11.16082546 -22.96142578 6.37060547 C-15.82183188 -0.24657912 -9.32657303 -0.00200615 0 0 Z " fill="#FDFEFE" transform="translate(168.96142578125,237.62939453125)"/>
</svg>
