<?xml version="1.0" encoding="UTF-8"?>
<svg version="1.1" xmlns="http://www.w3.org/2000/svg" width="512" height="512">
<path d="M0 0 C1.01201477 0.00054382 2.02402954 0.00108765 3.06671143 0.00164795 C19.60117395 0.0423949 35.52064864 0.96613093 51.75 4.375 C52.76529785 4.58398926 53.7805957 4.79297852 54.82666016 5.00830078 C102.26191172 15.08725364 144.95477718 38.83328266 179.75 72.375 C180.30606934 72.90915527 180.86213867 73.44331055 181.43505859 73.99365234 C188.74462845 81.05152969 195.57207844 88.28915648 201.75 96.375 C202.26675293 97.04241211 202.78350586 97.70982422 203.31591797 98.39746094 C238.3182428 143.79562604 257.24118295 198.26465817 257.125 255.625 C257.12418427 257.14302216 257.12418427 257.14302216 257.12335205 258.69171143 C257.08261077 275.22387291 256.16682284 291.148992 252.75 307.375 C252.42854004 308.921875 252.42854004 308.921875 252.10058594 310.5 C241.93886882 357.83259793 218.24523694 400.62799463 184.75 435.375 C184.21584473 435.93106934 183.68168945 436.48713867 183.13134766 437.06005859 C176.07347031 444.36962845 168.83584352 451.19707844 160.75 457.375 C160.08258789 457.89175293 159.41517578 458.40850586 158.72753906 458.94091797 C113.20028824 494.04276886 58.63586172 512.91212536 1.125 512.6875 C-0.32983292 512.68476578 -0.32983292 512.68476578 -1.8140564 512.68197632 C-16.16556055 512.63658309 -30.12942918 512.1312347 -44.25 509.375 C-45.14702637 509.21402832 -46.04405273 509.05305664 -46.96826172 508.88720703 C-98.15147794 499.62565165 -143.13784854 474.22875695 -180.25 438.375 C-180.77255371 437.87436035 -181.29510742 437.3737207 -181.83349609 436.85791016 C-188.51920721 430.43498493 -194.60302862 423.72336941 -200.25 416.375 C-200.76965332 415.7046875 -201.28930664 415.034375 -201.82470703 414.34375 C-226.08061669 382.87961826 -242.80199011 346.87207126 -251.0625 308 C-251.25739014 307.08710205 -251.45228027 306.1742041 -251.65307617 305.23364258 C-254.89884698 289.07917376 -255.6250833 273.18547931 -255.5625 256.75 C-255.56034485 255.73209381 -255.5581897 254.71418762 -255.55596924 253.66543579 C-255.50629854 239.05636477 -255.25540191 224.72424147 -252.25 210.375 C-252.05132324 209.40014648 -251.85264648 208.42529297 -251.64794922 207.42089844 C-241.28913481 157.90033399 -218.3380545 113.77434897 -183.25 77.375 C-182.71584473 76.81893066 -182.18168945 76.26286133 -181.63134766 75.68994141 C-174.57347031 68.38037155 -167.33584352 61.55292156 -159.25 55.375 C-158.58258789 54.85824707 -157.91517578 54.34149414 -157.22753906 53.80908203 C-141.01556322 41.30952741 -123.80469845 31.00787354 -105.25 22.375 C-104.55567871 22.04935059 -103.86135742 21.72370117 -103.14599609 21.38818359 C-82.64489661 11.90729182 -60.57693133 5.68050474 -38.25 2.375 C-37.13189941 2.19984863 -36.01379883 2.02469727 -34.86181641 1.84423828 C-23.24356028 0.18575552 -11.72359297 -0.02374605 0 0 Z " fill="#2196F3" transform="translate(255.25,-0.375)"/>
<path d="M0 0 C2.43020873 1.0219961 4.77757218 2.13788823 7.13012695 3.32763672 C8.37959106 3.94227783 8.37959106 3.94227783 9.65429688 4.56933594 C20.2201408 9.89736676 29.92378947 16.55047703 34.0324707 28.05981445 C35.03016968 31.74127475 35.02498709 35.28577601 34.94262695 39.07763672 C34.94584961 39.80789062 34.94907227 40.53814453 34.95239258 41.29052734 C34.85308585 51.66356657 32.17894356 61.39951327 29.19262695 71.26513672 C27.99788547 75.26302436 26.81125214 79.26320669 25.63012695 83.26513672 C25.18902588 84.72693359 25.18902588 84.72693359 24.73901367 86.21826172 C24.46460449 87.16185547 24.19019531 88.10544922 23.9074707 89.07763672 C23.6611792 89.90908203 23.4148877 90.74052734 23.16113281 91.59716797 C22.51262547 94.85550738 22.59711895 97.94994987 22.63012695 101.26513672 C24.32236137 101.27393608 24.32236137 101.27393608 26.04878235 101.28291321 C36.71469844 101.34028921 47.38041356 101.41312801 58.04612446 101.50085163 C63.52861861 101.54545412 69.01104018 101.58473237 74.49365234 101.61157227 C79.79116432 101.63770641 85.08839546 101.67817977 90.38573265 101.72832298 C92.4001432 101.74492354 94.41460224 101.75648 96.42907143 101.76275063 C116.7168486 101.83225398 116.7168486 101.83225398 125.63012695 105.26513672 C126.2780722 105.50751068 126.92601746 105.74988464 127.59359741 105.99960327 C140.01479193 111.03296186 148.43044184 118.99722516 154.66918945 130.81982422 C157.47349313 140.87427886 154.91970547 150.76097244 152.34106445 160.59326172 C151.99545653 161.95319254 151.65113577 163.31345103 151.30801392 164.67401123 C150.40548664 168.23868728 149.48615818 171.79880848 148.56286621 175.3581543 C147.64699933 178.90014767 146.7464391 182.44601927 145.8449707 185.99169922 C144.6137857 190.82950952 143.37671141 195.66573199 142.13167191 200.49999523 C140.68697257 206.1111374 139.26068533 211.72614998 137.87329102 217.35180664 C137.60441071 218.44116516 137.3355304 219.53052368 137.0585022 220.65289307 C136.56927399 222.64250575 136.08312043 224.63287855 135.60092163 226.62420654 C130.7360058 246.39846132 123.26133006 264.74021162 105.34106445 275.85498047 C98.83415388 279.23969908 93.07142961 279.61309815 85.87182617 279.73022461 C84.79736237 279.75461105 83.72289856 279.7789975 82.61587524 279.80412292 C71.95050828 280.02923362 61.28238804 280.13576388 50.61511791 280.22306353 C44.60069836 280.27344585 38.59004017 280.36205867 32.5769043 280.5065918 C26.07257514 280.66250282 19.57128802 280.73943157 13.06518936 280.76617241 C10.62165696 280.78837384 8.1781804 280.83573108 5.73574448 280.91221809 C-17.19487582 281.59240784 -35.0142778 273.92724322 -55.36987305 264.26513672 C-55.77087843 243.05228783 -56.06863545 221.84008224 -56.25067997 200.62418365 C-56.33753748 190.76816394 -56.45592686 180.91455183 -56.65234375 171.06005859 C-58.24889853 89.29699512 -58.24889853 89.29699512 -40.47146606 59.88891602 C-37.20114573 54.41621681 -34.99103699 48.50741414 -32.6940918 42.57763672 C-31.90587101 40.64627213 -31.11372596 38.71650313 -30.31713867 36.78857422 C-29.16241037 33.96762722 -28.00877252 31.14623672 -26.85546875 28.32470703 C-25.67919813 25.44964251 -24.49929754 22.57608762 -23.3190918 19.70263672 C-22.80665169 18.44350464 -22.80665169 18.44350464 -22.28385925 17.15893555 C-13.50928627 -4.18903386 -13.50928627 -4.18903386 0 0 Z " fill="#FEFEFE" transform="translate(247.369873046875,103.73486328125)"/>
<path d="M0 0 C1.80152779 0.0001133 1.80152779 0.0001133 3.63945007 0.00022888 C5.58486443 0.00797081 5.58486443 0.00797081 7.56958008 0.01586914 C8.91050667 0.01773462 10.25143394 0.01915791 11.59236145 0.02015686 C15.11870206 0.02397183 18.64500137 0.0337934 22.17132568 0.04486084 C25.77086834 0.05509689 29.37041768 0.05965918 32.9699707 0.06469727 C40.03053446 0.07541659 47.09107019 0.09248077 54.15161133 0.11352539 C54.24507759 21.50591584 54.31560181 42.89827259 54.35886002 64.29082584 C54.37947996 74.22390127 54.40758976 84.15684978 54.45336914 94.08984375 C54.49325423 102.74805281 54.51904827 111.40616995 54.52796531 120.06446832 C54.53317722 124.64845722 54.54541531 129.23218315 54.57453156 133.81608772 C54.60172707 138.13266736 54.61004799 142.44887627 54.60404205 146.76553345 C54.60514044 148.3477575 54.61306983 149.92999424 54.62843323 151.51214409 C54.76563563 166.37327465 54.76563563 166.37327465 50.15161133 172.11352539 C45.97696208 175.9827125 42.88087244 177.2202357 37.25634766 177.32226562 C36.26133743 177.34155624 35.26632721 177.36084686 34.24116516 177.38072205 C29.68588001 177.43861131 25.13075055 177.48775078 20.57519531 177.51855469 C18.17661125 177.54012265 15.77810563 177.57421071 13.37988281 177.62109375 C9.91411329 177.68820706 6.44997094 177.71557484 2.98364258 177.73461914 C1.91878128 177.7624498 0.85391998 177.79028046 -0.24320984 177.81895447 C-6.44164257 177.80194014 -10.30725972 176.93171804 -15.22138977 173.08778381 C-21.01048711 166.06308688 -20.28874635 158.26814795 -20.26831055 149.58447266 C-20.27565754 148.10874797 -20.2842456 146.63302902 -20.29397583 145.15731812 C-20.31613268 141.16346999 -20.31912551 137.16982854 -20.31722832 133.1759274 C-20.31710836 129.83603056 -20.32568254 126.4961771 -20.33400583 123.15629238 C-20.35321837 115.27441268 -20.35613134 107.39263888 -20.34936523 99.51074219 C-20.34272355 91.39161705 -20.36559861 83.27294611 -20.40267897 75.15391308 C-20.43340773 68.17108791 -20.44473264 61.18840863 -20.44084215 54.20551723 C-20.43877818 50.04020328 -20.44419932 45.875243 -20.46873474 41.70999336 C-20.49105265 37.79206817 -20.48908298 33.87488018 -20.46880722 29.95695114 C-20.46540618 28.52351111 -20.47044724 27.09002094 -20.4847908 25.65664864 C-20.55900393 17.68733853 -20.51496272 11.17262014 -14.84838867 5.11352539 C-9.84876026 1.21381523 -6.26026165 -0.01312424 0 0 Z " fill="#FEFEFE" transform="translate(128.848388671875,205.886474609375)"/>
</svg>
