<?xml version="1.0" encoding="UTF-8"?>
<svg version="1.1" xmlns="http://www.w3.org/2000/svg" width="512" height="512">
<path d="M0 0 C0.66402832 0.18191895 1.32805664 0.36383789 2.01220703 0.55126953 C35.43597917 9.86663716 62.76746753 33.16938064 79.8125 63 C100.8478329 101.10182184 103.46457477 146.40889899 91.93017578 187.83105469 C84.93389084 211.66616716 74.44718672 234.04077247 62.60546875 255.81640625 C61.9594901 257.00933604 61.3137778 258.2024101 60.66833496 259.39562988 C59.11481655 262.2651723 57.55868223 265.13326025 56 268 C56.77594513 267.99111755 57.55189026 267.98223511 58.35134888 267.9730835 C65.67808449 267.89280335 73.00460566 267.83196794 80.33166695 267.79275131 C84.09825591 267.77191146 87.86448024 267.74366092 91.63085938 267.69824219 C95.26836587 267.65465402 98.90552253 267.63083581 102.54327011 267.62049103 C103.92832824 267.61312274 105.31336807 267.59873395 106.69827652 267.57707977 C118.90012893 267.39395008 118.90012893 267.39395008 122.6965332 269.66650391 C125.24510711 272.24830246 126.67785988 274.44230134 128.22265625 277.7265625 C128.5065773 278.32473785 128.79049835 278.92291321 129.08302307 279.53921509 C133.29406719 288.55630368 137.11643489 297.75964647 140.98336792 306.92767334 C142.73667738 311.08426306 144.49770314 315.23755661 146.25923061 319.39066887 C146.64724897 320.3054938 146.64724897 320.3054938 147.04310608 321.23880005 C147.43353435 322.15925299 147.43353435 322.15925299 147.83185005 323.09830093 C148.62920779 324.97867303 149.42599312 326.85928677 150.22264099 328.73995972 C155.75645258 341.80117684 161.34427822 354.83912727 166.9375 367.875 C167.93347855 370.19732661 168.9294094 372.51967368 169.92529297 374.84204102 C171.93138081 379.51996826 173.9377657 384.19776794 175.94433594 388.87548828 C178.80688396 395.54913252 181.66791059 402.22342808 184.52829742 408.89799881 C185.31787182 410.74039864 186.10750854 412.58277176 186.89715576 414.42514038 C189.45999354 420.40497879 192.0219281 426.38520123 194.58203125 432.36621094 C198.96936187 442.61369045 203.36509475 452.85707241 207.8046875 463.08203125 C208.85749867 465.51327998 209.90980289 467.94474734 210.96188354 470.37631226 C211.90340195 472.54640777 212.85201586 474.71329969 213.80102539 476.88012695 C214.35600636 478.16210993 214.91063748 479.44424443 215.46484375 480.7265625 C215.935271 481.80502441 216.40569824 482.88348633 216.89038086 483.99462891 C219.12866273 490.05695011 219.51763754 495.04363801 217 501 C214.50383806 503.94419101 212.20545405 505.86303064 209 508 C206.28713928 508.1949639 203.67712785 508.27157264 200.96387005 508.25726891 C199.71535434 508.26252802 199.71535434 508.26252802 198.44161609 508.26789337 C195.6281417 508.27726192 192.81487185 508.27227008 190.00138855 508.26742554 C187.97367203 508.27115906 185.94595696 508.27575938 183.91824418 508.28115618 C178.32701522 508.29343855 172.73584586 508.29311958 167.14460647 508.29076743 C161.12198383 508.29036058 155.09938063 508.30138578 149.07676697 508.31088257 C137.27002653 508.3275223 125.46330103 508.33301933 113.65655132 508.33410732 C104.0628487 508.33502562 94.46915256 508.33913815 84.87545204 508.34550858 C82.1161489 508.34730361 79.35684574 508.34908323 76.59754258 508.35085833 C75.5686484 508.35152148 75.5686484 508.35152148 74.51896848 508.35219802 C55.21863833 508.36451058 35.91831043 508.37239873 16.61797619 508.37151146 C15.8899583 508.3714803 15.16194041 508.37144914 14.41186137 508.37141704 C10.72177938 508.37125082 7.03169739 508.37105274 3.3416154 508.37084763 C2.24227723 508.37078779 2.24227723 508.37078779 1.12073021 508.37072675 C-0.36135722 508.37064587 -1.84344464 508.37056228 -3.32553207 508.37047596 C-26.38607328 508.36925036 -49.44655569 508.38426355 -72.50708008 508.41162109 C-98.40248184 508.44232893 -124.29784497 508.45955436 -150.19326609 508.45769465 C-152.95351231 508.45754538 -155.71375853 508.45744797 -158.47400475 508.45738602 C-159.15367074 508.45736271 -159.83333674 508.4573394 -160.53359868 508.45731538 C-171.48105599 508.45725379 -182.42846235 508.47003685 -193.37590451 508.48725055 C-204.37497855 508.50418793 -215.3739872 508.50585202 -226.37306861 508.4930319 C-232.33425963 508.4864821 -238.29526556 508.48645746 -244.25643921 508.5037384 C-249.70994364 508.51938544 -255.16311496 508.51669149 -260.61661085 508.49917014 C-262.59306314 508.49608171 -264.56953979 508.49980136 -266.54596338 508.51089029 C-269.22649829 508.52493762 -271.90585278 508.51448351 -274.58634663 508.49777794 C-275.35906496 508.5077143 -276.13178329 508.51765066 -276.92791733 508.52788812 C-282.09372601 508.45952245 -285.01871711 507.25744254 -289 504 C-293.07671631 498.70667872 -292.73525952 493.41345054 -292 487 C-290.96119595 483.18812201 -289.43939887 479.71108299 -287.77734375 476.1328125 C-287.32976715 475.12118546 -286.88219055 474.10955841 -286.42105103 473.067276 C-285.4529483 470.8859997 -284.47479562 468.70916112 -283.48757935 466.53646851 C-281.9022926 463.04751433 -280.34326063 459.54785134 -278.79077148 456.04418945 C-277.16358407 452.37258115 -275.53581763 448.70131557 -273.89826965 445.03431702 C-268.78778399 433.5841789 -263.85993844 422.05920653 -258.97091675 410.51296997 C-256.59453319 404.90199426 -254.20895564 399.29492929 -251.82421875 393.6875 C-251.34789505 392.56694717 -250.87157135 391.44639435 -250.3808136 390.29188538 C-243.91531193 375.08739102 -237.40607237 359.9015428 -230.88183594 344.72216797 C-226.38539931 334.25703464 -221.90079809 323.78780118 -217.48272705 313.28929138 C-215.55673834 308.71412919 -213.62229061 304.14256558 -211.68731689 299.57119751 C-210.77969456 297.41988074 -209.87640456 295.26673042 -208.97772217 293.11166382 C-207.742081 290.14916468 -206.49182812 287.19323881 -205.23828125 284.23828125 C-204.7023661 282.93620224 -204.7023661 282.93620224 -204.15562439 281.6078186 C-201.55233096 275.52963914 -198.586513 271.724342 -193 268 C-190.24751282 267.75949097 -190.24751282 267.75949097 -186.8762207 267.77294922 C-185.61513992 267.77310028 -184.35405914 267.77325134 -183.05476379 267.77340698 C-181.67843468 267.78362024 -180.30210717 267.79405223 -178.92578125 267.8046875 C-177.51759542 267.80841828 -176.109407 267.81126494 -174.70121765 267.81326294 C-170.9972719 267.82089436 -167.29348332 267.84053852 -163.58959961 267.8626709 C-159.80910366 267.88313997 -156.02858228 267.89226692 -152.24804688 267.90234375 C-144.83195964 267.92378496 -137.41600186 267.95791487 -130 268 C-130.39922668 267.26213257 -130.79845337 266.52426514 -131.20977783 265.76403809 C-132.71454693 262.98114964 -134.2179642 260.19753613 -135.72052002 257.41345215 C-136.68131742 255.63413582 -137.64361987 253.85563246 -138.60595703 252.07714844 C-151.6348524 227.9268561 -162.4925839 202.7322646 -169 176 C-169.17644043 175.31260742 -169.35288086 174.62521484 -169.53466797 173.91699219 C-176.65856126 145.18136713 -173.25847223 110.46285768 -163 83 C-162.74879395 82.31389648 -162.49758789 81.62779297 -162.23876953 80.92089844 C-156.74444145 66.12355925 -149.36681207 52.95706091 -139 41 C-138.32582031 40.19304688 -137.65164062 39.38609375 -136.95703125 38.5546875 C-127.52683018 27.59572887 -116.61837141 19.03515369 -104 12 C-102.92363281 11.39414063 -101.84726563 10.78828125 -100.73828125 10.1640625 C-91.22142831 5.1016715 -81.38385649 1.79701326 -71 -1 C-69.74703125 -1.34289062 -68.4940625 -1.68578125 -67.203125 -2.0390625 C-46.07013154 -6.73041167 -20.71961348 -5.99091699 0 0 Z M-72.984375 104.26953125 C-81.00737441 115.13789673 -82.0733929 126.92040045 -81 140 C-78.49780411 152.12492636 -70.80768742 161.7599904 -61 169 C-49.69386684 175.28950454 -37.39388749 176.93859707 -24.6875 174.31640625 C-13.19446565 170.38200102 -3.3075935 162.74341212 2.640625 152.05078125 C7.77606293 140.99778409 9.39791401 127.68908284 5.375 115.9375 C-0.14663775 103.37960858 -8.82510063 94.21919973 -21.5546875 88.875 C-40.8841957 81.95837087 -60.03933968 89.31032086 -72.984375 104.26953125 Z " fill="#0EAB61" transform="translate(293,4)"/>
<path d="M0 0 C0.99604248 0.27287842 0.99604248 0.27287842 2.01220703 0.55126953 C35.43597917 9.86663716 62.76746753 33.16938064 79.8125 63 C100.8478329 101.10182184 103.46457477 146.40889899 91.93017578 187.83105469 C83.07333694 218.00474712 69.24214253 248.81670644 51.46435547 274.8269043 C48.92622507 278.59347627 46.59971939 282.48917597 44.25 286.375 C43.29740431 287.94563365 42.34430046 289.51595924 41.390625 291.0859375 C40.97844727 291.7670459 40.56626953 292.4481543 40.14160156 293.14990234 C39.13009302 294.78916918 38.06847775 296.39728337 37 298 C40.96 298 44.92 298 49 298 C45.88602838 300.33547871 43.1919341 301.90927719 39.72143555 303.54736328 C31.32326134 307.60552746 26.93664664 311.99212017 22 320 C20.43113569 322.24161916 18.85088844 324.4692062 17.25 326.6875 C16.83379395 327.27096191 16.41758789 327.85442383 15.98876953 328.45556641 C4.77452635 344.1623008 -6.98498747 359.4969042 -19.55859375 374.140625 C-21.01027769 375.84083723 -22.4463683 377.55489337 -23.84765625 379.296875 C-27.30768656 383.57987927 -29.61674379 385.539519 -35.06640625 386.28125 C-39.95345853 386.61201496 -43.29160842 386.00261637 -47.2109375 382.78125 C-50.67632961 379.33099061 -53.66698532 375.52156037 -56.67529297 371.67333984 C-58.08435703 369.89344212 -59.52406137 368.14238814 -60.97265625 366.39453125 C-68.76349028 356.97610238 -76.09903888 347.27536785 -83.27246094 337.38037109 C-84.95859753 335.05704834 -86.65404865 332.74079941 -88.3515625 330.42578125 C-100.29540148 314.08521959 -111.31227557 297.18345841 -122 280 C-123.03253906 278.34291016 -123.03253906 278.34291016 -124.0859375 276.65234375 C-128 270.26672535 -128 270.26672535 -128 268 C-128.66 268 -129.32 268 -130 268 C-146.137301 238.54313148 -161.00335447 208.84997315 -169 176 C-169.17644043 175.31260742 -169.35288086 174.62521484 -169.53466797 173.91699219 C-176.65856126 145.18136713 -173.25847223 110.46285768 -163 83 C-162.74879395 82.31389648 -162.49758789 81.62779297 -162.23876953 80.92089844 C-156.74444145 66.12355925 -149.36681207 52.95706091 -139 41 C-138.32582031 40.19304688 -137.65164062 39.38609375 -136.95703125 38.5546875 C-127.52683018 27.59572887 -116.61837141 19.03515369 -104 12 C-102.92363281 11.39414063 -101.84726563 10.78828125 -100.73828125 10.1640625 C-91.22142831 5.1016715 -81.38385649 1.79701326 -71 -1 C-69.74703125 -1.34289062 -68.4940625 -1.68578125 -67.203125 -2.0390625 C-46.07013154 -6.73041167 -20.71961348 -5.99091699 0 0 Z M-72.984375 104.26953125 C-81.00737441 115.13789673 -82.0733929 126.92040045 -81 140 C-78.49780411 152.12492636 -70.80768742 161.7599904 -61 169 C-49.69386684 175.28950454 -37.39388749 176.93859707 -24.6875 174.31640625 C-13.19446565 170.38200102 -3.3075935 162.74341212 2.640625 152.05078125 C7.77606293 140.99778409 9.39791401 127.68908284 5.375 115.9375 C-0.14663775 103.37960858 -8.82510063 94.21919973 -21.5546875 88.875 C-40.8841957 81.95837087 -60.03933968 89.31032086 -72.984375 104.26953125 Z " fill="#CB0010" transform="translate(293,4)"/>
<path d="M0 0 C1.25916229 -0.07085815 2.51832458 -0.14171631 3.81564331 -0.21472168 C8.84069087 -0.44371399 13.86781759 -0.60768714 18.89660454 -0.72795868 C22.70793468 -0.82008407 26.50684889 -0.95396477 30.31201172 -1.19335938 C54.8226427 -2.69820391 54.8226427 -2.69820391 61.52307129 2.68408203 C65.75769451 7.78707102 68.46270023 13.44586832 70.66360474 19.67224121 C72.30258377 23.52507079 74.67984686 27.0256456 76.89892578 30.57617188 C54.78892578 30.90617187 32.67892578 31.23617188 9.89892578 31.57617188 C-6.92240621 70.27555529 -23.64668405 109.01254954 -40.17529297 147.83789062 C-40.68637604 149.03834518 -41.19745911 150.23879974 -41.72402954 151.47563171 C-44.18867589 157.26549346 -46.65199963 163.05591169 -49.11279297 168.84741211 C-50.01903795 170.978355 -50.92528773 173.10929585 -51.83154297 175.24023438 C-52.21630295 176.14702438 -52.60106293 177.05381439 -52.9974823 177.98808289 C-56.0553562 185.17523317 -59.16697651 192.33854899 -62.28315735 199.50057983 C-62.74696635 200.56693507 -63.21077535 201.63329031 -63.68863916 202.73195934 C-64.82596765 205.34676209 -65.96345018 207.9614977 -67.10107422 210.57617188 C-26.66718424 210.76959215 13.76630726 210.88841172 54.20067065 210.90890422 C58.98770336 210.91139346 63.77473549 210.91449248 68.56176758 210.91796875 C69.99112502 210.91899135 69.99112502 210.91899135 71.44935837 210.9200346 C86.8249515 210.93248464 102.19996488 210.99419293 117.57533626 211.07450561 C133.38332675 211.1559665 149.19076878 211.1835647 164.99895781 211.16244376 C174.73300783 211.1510975 184.46511146 211.18043301 194.19881769 211.26390697 C200.89788342 211.31730781 207.59573243 211.31780729 214.29489157 211.27902137 C218.14552373 211.25821817 221.99263405 211.25850219 225.84287071 211.32242393 C246.42214369 211.64408865 260.82363759 207.9719581 278.24196851 197.19792199 C281.7199545 195.07503344 285.28689304 193.24224007 288.93017578 191.41992188 C290.01411621 190.85958252 291.09805664 190.29924316 292.21484375 189.72192383 C293.26559082 189.17882568 294.31633789 188.63572754 295.39892578 188.07617188 C297.8078615 186.83023577 300.21666567 185.5840454 302.62548828 184.33789062 C306.94720987 182.10216134 311.2697223 179.86797299 315.59307861 177.63540649 C318.0639121 176.35909485 320.53410168 175.08154059 323.00415039 173.80371094 C324.72179323 172.91562632 326.44023015 172.02907805 328.15869141 171.14257812 C332.49778555 168.89683624 336.81848043 166.65690251 341.03173828 164.18164062 C343.89892578 162.57617188 343.89892578 162.57617188 345.89892578 162.57617188 C337.08313949 141.19356865 328.07703983 119.89514974 318.96142578 98.63867188 C318.44773437 97.44029694 317.93404297 96.241922 317.40478516 95.00723267 C312.23347637 82.94684211 307.04750873 70.89324115 301.80126953 58.86523438 C301.22675804 57.54594185 301.22675804 57.54594185 300.64064026 56.19999695 C298.889939 52.17982304 297.13448172 48.16191215 295.36791992 44.14868164 C294.76345117 42.76393096 294.15918874 41.37909018 293.55517578 39.99414062 C293.03761719 38.8161792 292.52005859 37.63821777 291.98681641 36.42456055 C290.89892578 33.57617188 290.89892578 33.57617188 290.89892578 30.57617188 C268.78892578 30.57617188 246.67892578 30.57617188 223.89892578 30.57617188 C225.22105863 27.27083976 226.24101644 24.80424229 228.07080078 21.90429688 C228.69728516 20.9065625 228.69728516 20.9065625 229.33642578 19.88867188 C229.76955078 19.20804687 230.20267578 18.52742188 230.64892578 17.82617188 C231.27541016 16.8284375 231.27541016 16.8284375 231.91455078 15.81054688 C232.75508423 14.47799385 233.61167718 13.15540848 234.48553467 11.84446716 C235.9408522 9.61683083 235.9408522 9.61683083 236.97003174 7.23280334 C238.36064006 4.50167082 239.61818431 2.6402812 241.89892578 0.57617188 C246.66048008 -0.73175543 251.37663394 -0.571734 256.27392578 -0.44335938 C257.68586058 -0.43671612 259.0978152 -0.43349097 260.50976562 -0.43351746 C263.46279449 -0.42424527 266.41335163 -0.38513188 269.36572266 -0.32250977 C273.13881785 -0.24325075 276.90947337 -0.22085506 280.68331909 -0.21866322 C283.59699998 -0.21367552 286.51016483 -0.187354 289.42364502 -0.1537838 C290.81418728 -0.13860612 292.20478606 -0.12789344 293.59539795 -0.12183571 C307.31720408 -0.02692116 307.31720408 -0.02692116 311.89892578 4.57617188 C313.64916992 7.17236328 313.64916992 7.17236328 315.12158203 10.30273438 C315.40550308 10.90090973 315.68942413 11.49908508 315.98194885 12.11538696 C320.19299297 21.13247555 324.01536068 30.33581835 327.8822937 39.50384521 C329.63560316 43.66043494 331.39662892 47.81372848 333.15815639 51.96684074 C333.4168353 52.57672403 333.6755142 53.18660732 333.94203186 53.81497192 C334.20231737 54.42860722 334.46260288 55.04224251 334.73077583 55.67447281 C335.52813357 57.55484491 336.32491891 59.43545865 337.12156677 61.31613159 C342.65537836 74.37734871 348.24320401 87.41529915 353.83642578 100.45117188 C354.83240434 102.77349848 355.82833518 105.09584555 356.82421875 107.41821289 C358.83030659 112.09614013 360.83669148 116.77393982 362.84326172 121.45166016 C365.70580974 128.12530439 368.56683637 134.79959996 371.42722321 141.47417068 C372.2167976 143.31657052 373.00643432 145.15894363 373.79608154 147.00131226 C376.35891932 152.98115066 378.92085388 158.9613731 381.48095703 164.94238281 C385.86828765 175.18986233 390.26402053 185.43324429 394.70361328 195.65820312 C395.75642445 198.08945185 396.80872867 200.52091921 397.86080933 202.95248413 C398.80232773 205.12257964 399.75094164 207.28947156 400.69995117 209.45629883 C401.25493214 210.7382818 401.80956326 212.02041631 402.36376953 213.30273438 C402.83419678 214.38119629 403.30462402 215.4596582 403.78930664 216.57080078 C406.02758851 222.63312198 406.41656332 227.61980989 403.89892578 233.57617188 C401.40276384 236.52036288 399.10437983 238.43920251 395.89892578 240.57617188 C393.18606506 240.77113578 390.57605363 240.84774451 387.86279583 240.83344078 C386.61428012 240.83869989 386.61428012 240.83869989 385.34054187 240.84406525 C382.52706749 240.85343379 379.71379763 240.84844195 376.90031433 240.84359741 C374.87259781 240.84733093 372.84488274 240.85193125 370.81716996 240.85732806 C365.225941 240.86961043 359.63477164 240.86929145 354.04353225 240.86693931 C348.02090961 240.86653246 341.99830641 240.87755765 335.97569275 240.88705444 C324.16895231 240.90369418 312.36222681 240.9091912 300.55547711 240.9102792 C290.96177448 240.91119749 281.36807834 240.91531002 271.77437782 240.92168045 C269.01507468 240.92347548 266.25577152 240.92525511 263.49646837 240.92703021 C262.46757418 240.92769335 262.46757418 240.92769335 261.41789426 240.92836989 C242.11756411 240.94068245 222.81723622 240.9485706 203.51690197 240.94768333 C202.78888408 240.94765218 202.06086619 240.94762102 201.31078715 240.94758892 C197.62070516 240.9474227 193.93062317 240.94722461 190.24054118 240.9470195 C189.14120301 240.94695967 189.14120301 240.94695967 188.01965599 240.94689862 C186.53756857 240.94681775 185.05548114 240.94673415 183.57339371 240.94664784 C160.5128525 240.94542224 137.45237009 240.96043543 114.3918457 240.98779297 C88.49644394 241.0185008 62.60108081 241.03572624 36.70565969 241.03386652 C33.94541347 241.03371726 31.18516726 241.03361985 28.42492104 241.03355789 C27.74525504 241.03353458 27.06558904 241.03351127 26.3653271 241.03348726 C15.41786979 241.03342566 4.47046343 241.04620873 -6.47697873 241.06342242 C-17.47605277 241.0803598 -28.47506141 241.0820239 -39.47414283 241.06920378 C-45.43533385 241.06265398 -51.39633978 241.06262933 -57.35751343 241.07991028 C-62.81101786 241.09555731 -68.26418917 241.09286337 -73.71768507 241.07534201 C-75.69413736 241.07225358 -77.670614 241.07597323 -79.6470376 241.08706217 C-82.32757251 241.1011095 -85.006927 241.09065539 -87.68742085 241.07394981 C-88.46013918 241.08388617 -89.23285751 241.09382253 -90.02899155 241.10405999 C-95.19480022 241.03569432 -98.11979133 239.83361442 -102.10107422 236.57617188 C-106.17779053 231.2828506 -105.83633374 225.98962242 -105.10107422 219.57617188 C-104.06227017 215.76429389 -102.54047308 212.28725487 -100.87841797 208.70898438 C-100.43084137 207.69735733 -99.98326477 206.68573029 -99.52212524 205.64344788 C-98.55402252 203.46217158 -97.57586983 201.285333 -96.58865356 199.11264038 C-95.00336682 195.6236862 -93.44433485 192.12402322 -91.8918457 188.62036133 C-90.26465829 184.94875302 -88.63689185 181.27748744 -86.99934387 177.61048889 C-81.88885821 166.16035078 -76.96101266 154.6353784 -72.07199097 143.08914185 C-69.69560741 137.47816614 -67.31002986 131.87110116 -64.92529297 126.26367188 C-64.21080742 124.58284264 -64.21080742 124.58284264 -63.48188782 122.86805725 C-57.01638615 107.6635629 -50.50714659 92.47771467 -43.98291016 77.29833984 C-39.48647353 66.83320652 -35.00187231 56.36397306 -30.58380127 45.86546326 C-28.65781256 41.29030107 -26.72336483 36.71873746 -24.78839111 32.14736938 C-23.88076878 29.99605262 -22.97747878 27.8429023 -22.07879639 25.68783569 C-20.84315522 22.72533655 -19.59290234 19.76941068 -18.33935547 16.81445312 C-17.9820787 15.94640045 -17.62480194 15.07834778 -17.25669861 14.18399048 C-13.75427213 6.00651173 -9.30108909 0.51935058 0 0 Z " fill="#BCDCFD" transform="translate(106.10107421875,271.423828125)"/>
<path d="M0 0 C0 30.03 0 60.06 0 91 C-6.435 91.99 -6.435 91.99 -13 93 C-25.33798066 97.22939512 -34.28217079 105.39940421 -40 117 C-40.3403125 117.66128906 -40.680625 118.32257813 -41.03125 119.00390625 C-44.85798973 128.05698033 -44.47485422 140.86669815 -41.375 150.0625 C-36.60929664 160.92232578 -29.48574582 169.53056758 -18.75 174.875 C-11.95357098 177.6045575 -11.95357098 177.6045575 0 179 C0 248.63 0 318.26 0 390 C-8.3684305 388.80450993 -10.94935666 386.60276233 -16 380.25 C-16.77988281 379.27546875 -17.55976563 378.3009375 -18.36328125 377.296875 C-18.78561035 376.76642578 -19.20793945 376.23597656 -19.64306641 375.68945312 C-21.07276501 373.90940376 -22.52390893 372.14875097 -23.98046875 370.390625 C-31.76367991 360.96947601 -39.10057833 351.27324434 -46.27246094 341.38037109 C-47.95859753 339.05704834 -49.65404865 336.74079941 -51.3515625 334.42578125 C-63.29540148 318.08521959 -74.31227557 301.18345841 -85 284 C-86.03253906 282.34291016 -86.03253906 282.34291016 -87.0859375 280.65234375 C-91 274.26672535 -91 274.26672535 -91 272 C-91.66 272 -92.32 272 -93 272 C-109.137301 242.54313148 -124.00335447 212.84997315 -132 180 C-132.17644043 179.31260742 -132.35288086 178.62521484 -132.53466797 177.91699219 C-139.65856126 149.18136713 -136.25847223 114.46285768 -126 87 C-125.74879395 86.31389648 -125.49758789 85.62779297 -125.23876953 84.92089844 C-119.74444145 70.12355925 -112.36681207 56.95706091 -102 45 C-101.32582031 44.19304688 -100.65164062 43.38609375 -99.95703125 42.5546875 C-90.52683018 31.59572887 -79.61837141 23.03515369 -67 16 C-65.92363281 15.39414063 -64.84726563 14.78828125 -63.73828125 14.1640625 C-43.48195975 3.38892284 -22.86578153 0 0 0 Z " fill="#ED3616" transform="translate(256,0)"/>
<path d="M0 0 C3.96317154 -0.07204977 7.9202607 -0.17422763 11.88026619 -0.35083675 C37.37554267 -1.459772 37.37554267 -1.459772 43.74040413 2.40450382 C47.49450788 6.01985953 49.63236597 10.19409328 51.50929451 15.00887394 C52.48960586 17.4264142 53.84548593 19.38142853 55.41737556 21.45409489 C56.05352791 22.36614689 56.05352791 22.36614689 56.70253181 23.29662418 C62.5468124 31.61773433 68.63920786 39.72964683 74.84974861 47.78099918 C75.49726082 48.62187077 76.14477303 49.46274235 76.81190681 50.32909489 C77.3848951 51.06925846 77.95788338 51.80942204 78.54823494 52.57201481 C80.56011155 55.28844517 82.42454588 58.08655425 84.28065681 60.91112614 C83.31990242 61.40403141 82.35914803 61.89693668 81.36927986 62.40477848 C55.76156982 75.53606946 55.76156982 75.53606946 30.28065681 88.91112614 C34.82240946 94.3590233 39.64210433 99.40425299 44.67274666 104.40087223 C45.49292274 105.21958805 46.31309883 106.03830387 47.15812874 106.88182926 C48.92813528 108.64804764 50.69929558 110.4131104 52.47149467 112.17712879 C55.27196522 114.96479568 58.06934312 117.75554393 60.86577034 120.54726505 C66.79275992 126.46320213 72.72400381 132.37486545 78.65565681 138.28612614 C85.54993463 145.1567623 92.44253621 152.02906364 99.33099937 158.90552998 C102.09445302 161.6624745 104.86088658 164.41640544 107.62742805 167.17025089 C109.30674305 168.84593641 110.98591951 170.52176077 112.66493416 172.19774723 C113.44096992 172.96861668 114.21700569 173.73948612 115.01655769 174.53371525 C115.71467567 175.23176273 116.41279366 175.92981022 117.13206673 176.64901066 C117.7437187 177.25844202 118.35537067 177.86787338 118.98555756 178.49577236 C120.28065681 179.91112614 120.28065681 179.91112614 120.28065681 180.91112614 C46.69065681 180.91112614 -26.89934319 180.91112614 -102.71934319 180.91112614 C-99.34443454 170.78640019 -99.34443454 170.78640019 -97.46128654 166.41527653 C-97.03838844 165.42866535 -96.61549034 164.44205418 -96.17977715 163.42554569 C-95.72748238 162.3805138 -95.27518761 161.33548191 -94.80918694 160.25878239 C-94.3299427 159.14337574 -93.85069847 158.02796909 -93.35693169 156.87876225 C-92.06258735 153.86796432 -90.7650813 150.85855415 -89.46616936 147.84972477 C-88.09793373 144.67801838 -86.73399108 141.50446716 -85.36973381 138.33104801 C-83.17277781 133.2217214 -80.97386263 128.11324305 -78.7735424 123.00536442 C-75.09286998 114.45903719 -71.42718123 105.90632817 -67.76469231 97.35219669 C-66.35753219 94.06623505 -64.94916623 90.78079082 -63.54081535 87.49533939 C-60.33925901 80.02657861 -57.13926919 72.55714821 -53.94062424 65.08714008 C-51.77714804 60.03464151 -49.61326605 54.98231684 -47.44915771 49.930089 C-46.12343738 46.83504457 -44.79801257 43.73987438 -43.47300529 40.64452457 C-33.89560788 18.27113397 -33.89560788 18.27113397 -29.57481194 8.32518864 C-29.29261299 7.6713419 -29.01041405 7.01749516 -28.71966362 6.34383488 C-24.61472772 -3.06188811 -9.37339515 0.16731324 0 0 Z " fill="#FBD842" transform="translate(141.7193431854248,301.0888738632202)"/>
<path d="M0 0 C1.25916229 -0.07085815 2.51832458 -0.14171631 3.81564331 -0.21472168 C8.84069087 -0.44371399 13.86781759 -0.60768714 18.89660454 -0.72795868 C22.70793468 -0.82008407 26.50684889 -0.95396477 30.31201172 -1.19335938 C54.8226427 -2.69820391 54.8226427 -2.69820391 61.52307129 2.68408203 C65.75769451 7.78707102 68.46270023 13.44586832 70.66360474 19.67224121 C72.30258377 23.52507079 74.67984686 27.0256456 76.89892578 30.57617188 C54.78892578 30.90617187 32.67892578 31.23617188 9.89892578 31.57617188 C-6.92240621 70.27555529 -23.64668405 109.01254954 -40.17529297 147.83789062 C-40.68637604 149.03834518 -41.19745911 150.23879974 -41.72402954 151.47563171 C-44.18867589 157.26549346 -46.65199963 163.05591169 -49.11279297 168.84741211 C-50.01903795 170.978355 -50.92528773 173.10929585 -51.83154297 175.24023438 C-52.21630295 176.14702438 -52.60106293 177.05381439 -52.9974823 177.98808289 C-57.63181027 188.88049138 -62.38073638 199.71939485 -67.10107422 210.57617188 C4.50892578 210.57617188 76.11892578 210.57617188 149.89892578 210.57617188 C149.89892578 220.47617187 149.89892578 230.37617188 149.89892578 240.57617188 C118.6621277 240.66659119 87.42537666 240.73820694 56.18847927 240.78043319 C52.50097815 240.78543604 48.81347729 240.79061333 45.12597656 240.79589844 C44.39185919 240.79694768 43.65774182 240.79799692 42.90137847 240.79907796 C31.01344863 240.81648488 19.12559614 240.84802413 7.23771219 240.88478306 C-4.95966581 240.92218452 -17.15700329 240.94440604 -29.35443628 240.95252585 C-36.88140411 240.9580153 -44.40815333 240.97535528 -51.93505387 241.00783774 C-57.70596074 241.0314741 -63.47672741 241.03399372 -69.24767303 241.0286026 C-71.61562573 241.02970461 -73.98358657 241.03768197 -76.35149002 241.05299377 C-79.5814448 241.0728585 -82.81045983 241.06812319 -86.04043579 241.05718994 C-86.98013202 241.06884131 -87.91982826 241.08049267 -88.88800013 241.09249711 C-94.45963744 241.04142615 -97.69830798 240.3294426 -102.10107422 236.57617188 C-106.17779053 231.2828506 -105.83633374 225.98962242 -105.10107422 219.57617188 C-104.06227017 215.76429389 -102.54047308 212.28725487 -100.87841797 208.70898438 C-100.43084137 207.69735733 -99.98326477 206.68573029 -99.52212524 205.64344788 C-98.55402252 203.46217158 -97.57586983 201.285333 -96.58865356 199.11264038 C-95.00336682 195.6236862 -93.44433485 192.12402322 -91.8918457 188.62036133 C-90.26465829 184.94875302 -88.63689185 181.27748744 -86.99934387 177.61048889 C-81.88885821 166.16035078 -76.96101266 154.6353784 -72.07199097 143.08914185 C-69.69560741 137.47816614 -67.31002986 131.87110116 -64.92529297 126.26367188 C-64.21080742 124.58284264 -64.21080742 124.58284264 -63.48188782 122.86805725 C-57.01638615 107.6635629 -50.50714659 92.47771467 -43.98291016 77.29833984 C-39.48647353 66.83320652 -35.00187231 56.36397306 -30.58380127 45.86546326 C-28.65781256 41.29030107 -26.72336483 36.71873746 -24.78839111 32.14736938 C-23.88076878 29.99605262 -22.97747878 27.8429023 -22.07879639 25.68783569 C-20.84315522 22.72533655 -19.59290234 19.76941068 -18.33935547 16.81445312 C-17.9820787 15.94640045 -17.62480194 15.07834778 -17.25669861 14.18399048 C-13.75427213 6.00651173 -9.30108909 0.51935058 0 0 Z " fill="#DFF3FD" transform="translate(106.10107421875,271.423828125)"/>
<path d="M0 0 C1.66349411 1.29155731 1.66349411 1.29155731 3.32830811 2.96081543 C3.96486832 3.59180649 4.60142853 4.22279755 5.25727844 4.87290955 C5.94420273 5.56904861 6.63112701 6.26518768 7.33886719 6.98242188 C8.07096909 7.7124794 8.80307098 8.44253693 9.55735779 9.19471741 C11.97785152 11.61220036 14.38742652 14.04026225 16.796875 16.46875 C18.4720939 18.14702552 20.14790331 19.82471179 21.82427979 21.50183105 C25.33584697 25.01800289 28.84244183 28.53903257 32.34521484 32.06396484 C36.84689945 36.59397539 41.35725714 41.11522275 45.87089157 45.63332367 C49.33020653 49.09678434 52.78668032 52.56306776 56.24210358 56.03041077 C57.9051099 57.69913409 59.56859865 59.36737678 61.23256683 61.03514099 C63.55059603 63.3600043 65.86519687 65.68822281 68.17871094 68.01757812 C68.87373215 68.71371719 69.56875336 69.40985626 70.28483582 70.12709045 C70.91011673 70.75808151 71.53539764 71.38907257 72.17962646 72.03918457 C72.72750698 72.59003975 73.2753875 73.14089493 73.83987045 73.70844269 C75 75 75 75 75 76 C15.6 76 -43.8 76 -105 76 C-104.01 73.03 -103.02 70.06 -102 67 C-101.57647453 65.24526552 -101.16816155 63.48667832 -100.78515625 61.72265625 C-98.18362904 52.37375156 -94.69745472 45.18973848 -86.21394348 40.08097839 C-77.81459676 35.41677154 -68.9924728 31.59164435 -60.16650391 27.81689453 C-55.21199746 25.68560313 -50.47152651 23.22762615 -45.75 20.625 C-37.70362608 16.31029123 -29.5404234 12.238481 -21.35449219 8.19580078 C-20.39961914 7.72255371 -19.44474609 7.24930664 -18.4609375 6.76171875 C-17.54022461 6.30587402 -16.61951172 5.8500293 -15.67089844 5.38037109 C-12.34553823 3.66176172 -9.1426771 1.7644377 -5.95947266 -0.20385742 C-3.46350765 -1.21797926 -2.51625524 -0.88656097 0 0 Z " fill="#159BE0" transform="translate(144,406)"/>
<path d="M0 0 C3.96317154 -0.07204977 7.9202607 -0.17422763 11.88026619 -0.35083675 C37.35372806 -1.45862972 37.35372806 -1.45862972 43.72529793 2.38637638 C47.47212279 5.98642076 49.57291732 10.16067286 51.46077156 14.9506464 C52.58179417 17.6311948 54.17904268 19.79230239 55.94471931 22.08690739 C56.44616463 22.78880192 56.94760994 23.49069645 57.46425056 24.21386051 C58.46250665 25.6057379 59.46263375 26.99627459 60.46425056 28.38573551 C60.95280525 29.07087223 61.44135994 29.75600895 61.94471931 30.46190739 C62.58594734 31.35389835 62.58594734 31.35389835 63.24012947 32.26390934 C64.28065681 33.91112614 64.28065681 33.91112614 65.28065681 36.91112614 C46.63832345 46.54223432 27.97087537 56.12327009 9.28065681 65.66112614 C7.28073172 66.68186541 5.28081312 67.7026174 3.28090096 68.723382 C2.28722008 69.23055256 1.2935392 69.73772312 0.26974678 70.26026249 C-0.72438728 70.76766468 -1.71852135 71.27506687 -2.74278069 71.79784489 C-4.23222946 72.5580418 -4.23222946 72.5580418 -5.75176811 73.33359623 C-15.40196845 78.25913603 -25.05163198 83.18571548 -34.69737053 88.11998844 C-36.43278559 89.00746389 -38.16845385 89.89444443 -39.90440178 90.78087711 C-42.31475212 92.01176743 -44.72435371 93.24410306 -47.13340569 94.47753239 C-48.24936119 95.04865253 -48.24936119 95.04865253 -49.38786125 95.63131046 C-55.08885987 98.56049597 -60.72169747 101.60229767 -66.32627678 104.71166325 C-68.71934319 105.91112614 -68.71934319 105.91112614 -70.71934319 105.91112614 C-68.546068 99.0448428 -65.92424253 92.50555796 -63.02793694 85.91503239 C-62.56989174 84.86385731 -62.11184654 83.81268223 -61.63992119 82.72965336 C-60.14895576 79.30948542 -58.65288861 75.89157461 -57.15684319 72.47362614 C-55.07815082 67.71011742 -53.00215928 62.9454337 -50.92637444 58.18065739 C-50.40500908 56.98480015 -49.88364372 55.78894291 -49.34647942 54.55684757 C-45.94711167 46.75302359 -42.57562435 38.93780812 -39.23106194 31.11034489 C-38.60061218 29.63502041 -38.60061218 29.63502041 -37.95742607 28.1298914 C-35.98171042 23.50327839 -34.01003107 18.87497099 -32.04136467 14.24535465 C-31.3429209 12.60788533 -30.64443707 10.97043309 -29.94590569 9.33300114 C-29.63034218 8.58769642 -29.31477867 7.8423917 -28.98965263 7.07450199 C-24.62078011 -3.15357765 -10.11269382 0.18050958 0 0 Z " fill="#0FAB61" transform="translate(141.7193431854248,301.0888738632202)"/>
<path d="M0 0 C2.14524522 1.4380767 3.53651844 2.96461934 5.15742493 4.97503662 C5.75812805 5.7130249 6.35883118 6.45101318 6.97773743 7.21136475 C7.90199524 8.36862061 7.90199524 8.36862061 8.84492493 9.54925537 C9.4610968 10.30915771 10.07726868 11.06906006 10.71211243 11.85198975 C13.21126376 14.93838802 15.68955913 18.03730287 18.13008118 21.17034912 C21.52909142 25.26619517 24.66076335 26.19992305 29.84492493 27.23675537 C29.84492493 55.28675537 29.84492493 83.33675537 29.84492493 112.23675537 C21.96992493 105.48675537 21.96992493 105.48675537 19.04196167 102.55404663 C18.04307167 101.55721863 18.04307167 101.55721863 17.02400208 100.54025269 C15.96771606 99.47857376 15.96771606 99.47857376 14.89009094 98.39544678 C14.12829025 97.63379211 13.36648956 96.87213745 12.581604 96.08740234 C10.08496636 93.59007265 7.5918813 91.0892285 5.09883118 88.58831787 C3.36027539 86.84789539 1.62149748 85.10769477 -0.11749268 83.3677063 C-4.67840145 78.80299216 -9.23629821 74.23528211 -13.79356384 69.66693115 C-18.45065561 64.99958259 -23.1106041 60.33508813 -27.77030945 55.67034912 C-36.90135491 46.52860128 -46.0293168 37.383781 -55.15507507 28.23675537 C-52.6587074 25.58245721 -50.44206295 23.63229218 -47.17192078 22.02606201 C-46.40044205 21.64208755 -45.62896332 21.2581131 -44.83410645 20.86250305 C-43.59499763 20.26078529 -43.59499763 20.26078529 -42.33085632 19.64691162 C-41.47001938 19.22050888 -40.60918243 18.79410614 -39.72225952 18.3547821 C-36.97438757 16.99530665 -34.2212947 15.6468408 -31.46757507 14.29925537 C-28.73275186 12.95322656 -25.99909537 11.60488275 -23.26644897 10.25444031 C-21.569379 9.41659179 -19.87090897 8.58157059 -18.17077637 7.74995422 C-17.38353683 7.36282761 -16.5962973 6.97570099 -15.78520203 6.57684326 C-14.63877731 6.01430344 -14.63877731 6.01430344 -13.4691925 5.44039917 C-10.27521325 3.77911212 -7.22326561 1.89269595 -4.18087769 -0.03083801 C-2.15507507 -0.76324463 -2.15507507 -0.76324463 0 0 Z " fill="#5DC882" transform="translate(226.1550750732422,362.76324462890625)"/>
<path d="M0 0 C1.842305 4.10019767 3.67229455 8.20577608 5.5 12.3125 C6.02464844 13.47974609 6.54929687 14.64699219 7.08984375 15.84960938 C7.58613281 16.96787109 8.08242188 18.08613281 8.59375 19.23828125 C9.28500977 20.7857605 9.28500977 20.7857605 9.99023438 22.36450195 C11 25 11 25 11 28 C-2.14054702 34.8844908 -15.30862708 41.71356638 -28.5 48.5 C-38.26014466 53.52224827 -48.01661404 58.55100367 -57.75 63.625 C-58.61044922 64.07294922 -59.47089844 64.52089844 -60.35742188 64.98242188 C-61.18306641 65.41361328 -62.00871094 65.84480469 -62.859375 66.2890625 C-63.63873917 66.68851578 -64.41810333 67.08796906 -65.22108459 67.49952698 C-67.11652921 68.52297069 -68.9745342 69.61814699 -70.79356384 70.7719574 C-79.48991405 76.06722331 -86.80265342 76.948933 -96.70703125 76.68359375 C-98.16816302 76.6704977 -99.62932605 76.66055254 -101.09049988 76.65357971 C-104.89047863 76.62716679 -108.6885098 76.55869123 -112.48773193 76.48065186 C-116.38282946 76.40835188 -120.27824946 76.37692764 -124.17382812 76.34179688 C-131.78342899 76.26728101 -139.39143911 76.1482103 -147 76 C-144.23887971 73.88866674 -141.59004985 72.18120529 -138.46484375 70.65234375 C-137.14383667 70.00060181 -137.14383667 70.00060181 -135.79614258 69.33569336 C-134.85279053 68.87428955 -133.90943848 68.41288574 -132.9375 67.9375 C-126.01876684 64.51607431 -119.12774365 61.06090275 -112.3125 57.4375 C-103.16775642 52.58303203 -93.96071724 47.85261404 -84.75 43.125 C-74.06478463 37.63949387 -63.39028244 32.13601678 -52.75048828 26.56274414 C-47.03768906 23.57428054 -41.31204717 20.61172876 -35.578125 17.6640625 C-34.84022736 17.2846199 -34.10232971 16.90517731 -33.34207153 16.51423645 C-29.68014722 14.63162431 -26.01726372 12.75091065 -22.35302734 10.87280273 C-20.99822255 10.17721235 -19.64356345 9.48133811 -18.2890625 8.78515625 C-17.64444061 8.45408371 -16.99981873 8.12301117 -16.33566284 7.78190613 C-12.03323669 5.56174459 -7.79703112 3.24888117 -3.61474609 0.81030273 C-2 0 -2 0 0 0 Z " fill="#F9BD2A" transform="translate(441,406)"/>
<path d="M0 0 C11.62266219 25.96174318 11.62266219 25.96174318 16.75 38.0625 C17.08451172 38.8460083 17.41902344 39.6295166 17.76367188 40.43676758 C20 45.75766549 20 45.75766549 20 48 C-17.29 48 -54.58 48 -93 48 C-89.17029049 44.93623239 -86.33614679 42.99310464 -82.0546875 40.8984375 C-80.90589111 40.3314917 -79.75709473 39.7645459 -78.57348633 39.18041992 C-77.97065826 38.88622162 -77.3678302 38.59202332 -76.74673462 38.28890991 C-73.55510865 36.73053802 -70.37385749 35.15121902 -67.19140625 33.57421875 C-66.56084824 33.26235123 -65.93029022 32.9504837 -65.28062439 32.62916565 C-60.41852913 30.22025602 -55.60153222 27.73798714 -50.8125 25.1875 C-44.79042366 21.98213438 -38.74339604 18.82907094 -32.67578125 15.7109375 C-31.9349379 15.33014542 -31.19409454 14.94935333 -30.43080139 14.55702209 C-26.69057518 12.63537207 -22.9490381 10.71631081 -19.20629883 8.79956055 C-17.81719771 8.0864693 -16.42811801 7.37333633 -15.0390625 6.66015625 C-14.40337845 6.33554413 -13.7676944 6.01093201 -13.11274719 5.67648315 C-10.42277405 4.29392536 -7.80995435 2.88063569 -5.24755859 1.27124023 C-3 0 -3 0 0 0 Z " fill="#169BE0" transform="translate(453,434)"/>
<path d="M0 0 C2.04518638 0.14412387 4.08938894 0.31786425 6.125 0.5625 C2.78748862 3.22593273 -0.75601852 5.26725504 -4.5 7.3125 C-5.64726562 7.94671875 -6.79453125 8.5809375 -7.9765625 9.234375 C-8.93304688 9.67265625 -9.88953125 10.1109375 -10.875 10.5625 C-11.535 10.2325 -12.195 9.9025 -12.875 9.5625 C-9.93943856 2.80668738 -7.6639537 -0.07521874 0 0 Z " fill="#F3B82A" transform="translate(335.875,301.4375)"/>
<path d="M0 0 C2.02054804 1.64169528 4.02043058 3.30911778 6 5 C6 5.33 6 5.66 6 6 C4.02 6 2.04 6 0 6 C0 4.02 0 2.04 0 0 Z " fill="#F8BA96" transform="translate(256,476)"/>
</svg>
