<?xml version="1.0" encoding="UTF-8"?>
<svg version="1.1" xmlns="http://www.w3.org/2000/svg" width="512" height="512">
<path d="M0 0 C1.96484375 1.3203125 1.96484375 1.3203125 3.9375 3.125 C12.84798468 10.4221245 23.63102281 13.972388 35 15 C36.11568359 15.10634766 36.11568359 15.10634766 37.25390625 15.21484375 C50.39066904 15.81966708 63.02660551 10.87986099 74 4 C74.79277344 3.23558594 75.58554688 2.47117187 76.40234375 1.68359375 C79.79717661 -0.51666635 81.70379926 -0.18309826 85.59960938 0.46191406 C89.58222819 1.35468175 93.40501948 2.50868232 97.25 3.875 C98.10190918 4.17672119 98.95381836 4.47844238 99.83154297 4.78930664 C113.89654064 9.98188514 127.88938028 16.81184871 139 27 C140.23363281 28.00740234 140.23363281 28.00740234 141.4921875 29.03515625 C156.93682867 41.96828283 165.18579928 60.09983173 167 80 C167.12410474 83.32407261 167.1172212 86.64274715 167.09765625 89.96875 C167.09553383 91.35012146 167.09553383 91.35012146 167.09336853 92.75939941 C167.08781407 95.67296734 167.07527025 98.58645568 167.0625 101.5 C167.05747911 103.48697805 167.05291723 105.47395731 167.04882812 107.4609375 C167.0378596 112.30732188 167.02062683 117.15364749 167 122 C129.12528851 134.84615503 87.9252663 140.38961765 48 141 C47.25266602 141.01514648 46.50533203 141.03029297 45.73535156 141.04589844 C40.82011909 141.13812934 35.91473354 141.10768295 31 141 C29.71101807 140.97317139 29.71101807 140.97317139 28.39599609 140.94580078 C-10.71073059 140.00833419 -51.88199457 134.89808316 -89 122 C-89.05025871 117.02361444 -89.08611551 112.04738359 -89.10986328 107.07080078 C-89.11978592 105.38555318 -89.13332834 103.70032214 -89.15087891 102.01513672 C-89.41028171 76.42581308 -86.5227413 53.15612601 -68.38916016 33.85693359 C-54.00692013 19.20906984 -22.09291817 -3.15064224 0 0 Z " fill="rgb(54, 76, 243)" transform="translate(176,259)"/>
<path d="M0 0 C12.95194645 12.10918281 18.67899467 26.96620713 19.515625 44.40234375 C19.54140625 45.26214844 19.5671875 46.12195313 19.59375 47.0078125 C18.94148438 47.26433594 18.28921875 47.52085937 17.6171875 47.78515625 C10.67044982 50.82819621 7.02756346 54.24155277 3.59375 61.0078125 C1.08770429 68.52594964 2.72594964 76.45008161 4.37426758 84.00146484 C7.16090909 97.0182184 7.16090909 97.0182184 5.6171875 102.43359375 C3.82209133 105.00328621 1.92376123 106.9172972 -0.40625 109.0078125 C-1.76111481 110.69475202 -3.11525467 112.38227399 -4.46875 114.0703125 C-13.98950928 124.37092919 -25.86799878 130.80392996 -39.90917969 131.45458984 C-55.14493618 131.79643782 -66.59042267 125.58531167 -77.59375 115.2578125 C-81.99254332 110.65545329 -85.25710309 105.5188196 -88.40625 100.0078125 C-89.19515625 98.63496094 -89.19515625 98.63496094 -90 97.234375 C-101.25122127 76.28184559 -105.19112886 50.06334076 -98.71875 27.04296875 C-93.73008217 11.00960459 -84.29618891 -1.04166891 -69.75 -9.37109375 C-45.96785189 -20.90099032 -20.18087377 -16.70819094 0 0 Z " fill="rgb(54, 76, 243)" transform="translate(256.40625,127.9921875)"/>
<path d="M0 0 C1.67183751 1.0847735 3.34368149 2.16953737 5.01609802 3.25341797 C6.7137966 4.35478942 8.40948055 5.45921249 10.10498047 6.56396484 C14.90321684 9.67991676 19.73146186 12.74775137 24.5625 15.8125 C26.36469019 16.95816527 28.16677366 18.10399842 29.96875 19.25 C30.85691406 19.81460938 31.74507813 20.37921875 32.66015625 20.9609375 C35.43044949 22.72276428 38.19974226 24.48615362 40.96875 26.25 C41.89502197 26.83982666 42.82129395 27.42965332 43.77563477 28.03735352 C45.61509911 29.2090351 47.45413812 30.38138473 49.29272461 31.55444336 C53.81669725 34.43764348 58.35139806 37.30097462 62.91015625 40.12890625 C63.78841064 40.67595215 64.66666504 41.22299805 65.5715332 41.78662109 C67.23214212 42.81959955 68.89589067 43.84755359 70.56323242 44.86962891 C71.30033447 45.32901855 72.03743652 45.7884082 72.796875 46.26171875 C73.44237305 46.65963623 74.08787109 47.05755371 74.75292969 47.4675293 C77.70825592 49.69025133 78.36143659 51.59804131 78.90625 55.19140625 C78.72976921 61.24828203 75.13283312 65.73603904 71.875 70.625 C71.20734619 71.65753906 70.53969238 72.69007813 69.85180664 73.75390625 C68.43437625 75.9444655 67.00978182 78.13040328 65.57861328 80.31201172 C63.36017096 83.69801644 61.18961079 87.11309081 59.02734375 90.53515625 C44.33988077 113.72261923 44.33988077 113.72261923 40.375 117.6875 C33.43861015 118.69255526 29.22576493 117.06894819 23.6875 113.0625 C22.19903545 112.04393607 20.70939228 111.02709297 19.21875 110.01171875 C18.435 109.46950684 17.65125 108.92729492 16.84375 108.36865234 C12.52754919 105.4294357 8.10269752 102.66227159 3.6875 99.875 C1.80827405 98.68149282 -0.07062931 97.48747755 -1.94921875 96.29296875 C-2.88813965 95.69661621 -3.82706055 95.10026367 -4.79443359 94.48583984 C-10.31307968 90.97968605 -15.82883437 87.46897874 -21.34301758 83.95581055 C-26.09483362 80.92929805 -30.85182956 77.91140289 -35.6171875 74.90625 C-36.60203125 74.28363281 -37.586875 73.66101563 -38.6015625 73.01953125 C-40.47224049 71.83712158 -42.34452368 70.65724591 -44.21875 69.48046875 C-63.1019715 57.52870167 -63.1019715 57.52870167 -66.625 45.6875 C-67.67732464 40.95315829 -68.56889695 36.19936056 -69.41479492 31.42431641 C-69.81189329 29.19091233 -70.22444826 26.96075268 -70.63867188 24.73046875 C-70.89936717 23.28923035 -71.15916311 21.84782893 -71.41796875 20.40625 C-71.6502417 19.11654297 -71.88251465 17.82683594 -72.12182617 16.49804688 C-73.51407632 5.95450474 -73.51407632 5.95450474 -70.63720703 1.85473633 C-66.98715982 -0.77141614 -63.74349119 -1.87713242 -59.4296875 -2.98828125 C-58.64159698 -3.20316696 -57.85350647 -3.41805267 -57.04153442 -3.63945007 C-55.3778789 -4.08861056 -53.71193349 -4.5293646 -52.04394531 -4.9621582 C-49.52250599 -5.61913592 -47.01155618 -6.3082688 -44.5 -7.00195312 C-25.92775497 -12.01838203 -16.08877495 -10.57629129 0 0 Z M-48.4375 16.875 C-50.41499163 19.89327669 -50.74235461 23.15995845 -50.625 26.6875 C-49.06082441 30.39212639 -47.11655846 32.69232374 -43.625 34.6875 C-39.57418715 36.06845893 -37.16440003 35.7436732 -33.375 34 C-30.19543732 32.40405672 -28.89182155 31.02787523 -27.625 27.6875 C-27.28963909 23.99853 -27.34870232 21.4026234 -28.6875 17.9375 C-31.28973687 14.9155475 -33.88418051 13.95670661 -37.625 12.6875 C-41.93113593 12.6875 -44.88664124 14.54857529 -48.4375 16.875 Z " fill="rgb(54, 76, 243)" transform="translate(345.625,189.3125)"/>
</svg>
