<?xml version="1.0" encoding="UTF-8"?>
<svg version="1.1" xmlns="http://www.w3.org/2000/svg" width="512" height="512">
<path d="M0 0 C1.21782166 -0.0033284 2.43564331 -0.0066568 3.69036865 -0.01008606 C6.25532659 -0.01512517 8.82029102 -0.01749532 11.38525391 -0.01733398 C15.27127089 -0.01951687 19.15700198 -0.03769549 23.04296875 -0.05664062 C25.54947821 -0.05957605 28.055989 -0.06155985 30.5625 -0.0625 C31.70567688 -0.06968552 32.84885376 -0.07687103 34.02667236 -0.08427429 C42.17616459 -0.06164216 50.01070775 0.83484499 58.046875 2.16796875 C58.01360107 3.12268066 57.98032715 4.07739258 57.94604492 5.06103516 C57.83252998 8.35273356 57.72487455 11.64455413 57.61962891 14.93652344 C57.57299221 16.36692403 57.52464504 17.79727049 57.47412109 19.22753906 C57.32217883 23.51491451 57.32217883 23.51491451 57.24864197 27.80418968 C57.19992085 33.04644317 56.85979406 38.17614128 56.32568359 43.39224243 C55.31053532 56.00298432 54.57396945 66.98808185 62.86607361 77.36691856 C66.85763412 81.7070638 71.05568772 85.76700936 75.42242241 89.72225904 C78.0318661 92.12022107 80.5466863 94.61404458 83.07385254 97.09805298 C87.84682678 101.76239873 92.69413878 106.34008806 97.57669115 110.88931048 C103.68685795 116.59010645 109.69242391 122.39775525 115.69921875 128.20703125 C121.82902724 134.13059766 127.96684198 140.04358612 134.17248535 145.88778687 C135.10679886 146.76977249 136.04111237 147.65175812 137.0037384 148.56047058 C138.75552889 150.21138755 140.51138841 151.85800089 142.27189636 153.49961853 C143.03758438 154.22181076 143.8032724 154.94400299 144.59216309 155.68807983 C145.26322838 156.31573935 145.93429367 156.94339886 146.62569427 157.59007835 C148.046875 159.16796875 148.046875 159.16796875 148.046875 161.16796875 C146.777322 161.81631529 145.50617794 162.4615469 144.234375 163.10546875 C143.52667969 163.46511719 142.81898438 163.82476562 142.08984375 164.1953125 C138.92559826 165.70180796 136.38885176 166.2936896 132.92626095 166.30218983 C131.66207912 166.30887659 131.66207912 166.30887659 130.37235826 166.31569844 C129.4463085 166.31551408 128.52025873 166.31532972 127.56614685 166.31513977 C126.58241956 166.31881646 125.59869228 166.32249315 124.58515507 166.32628125 C121.27348032 166.33733515 117.96183694 166.34116485 114.65014648 166.3449707 C112.281722 166.35123414 109.91329851 166.35788083 107.5448761 166.36488342 C100.42551569 166.38412425 93.30615469 166.39471457 86.18677554 166.40361121 C82.83237703 166.40799576 79.4779801 166.41336222 76.12358284 166.41860008 C64.96904421 166.43561372 53.81450655 166.4501064 42.65995693 166.45734882 C39.76541073 166.45925866 36.87086453 166.461179 33.97631836 166.46313477 C33.25690919 166.46361851 32.53750003 166.46410225 31.79629058 166.46460065 C20.15050702 166.47289535 8.50482636 166.49822215 -3.1409123 166.53071544 C-15.1033689 166.56381958 -27.06577327 166.5818007 -39.02827591 166.58499306 C-45.7422911 166.58715532 -52.45613347 166.59630698 -59.17010689 166.62145424 C-65.48941018 166.64474008 -71.80844393 166.64896587 -78.12777901 166.63869286 C-80.44406023 166.63819749 -82.76035473 166.64451799 -85.07659531 166.6582489 C-88.2458888 166.67598163 -91.4142165 166.66885411 -94.58351135 166.65571594 C-95.94916342 166.67216981 -95.94916342 166.67216981 -97.34240443 166.68895608 C-106.63757234 166.59632317 -114.39651943 163.55387965 -121.1953125 157.16796875 C-132.01387092 144.85885339 -129.52100252 128.48173253 -128.953125 113.16796875 C-126.88641388 84.20905285 -112.80541543 57.76615449 -92.953125 37.16796875 C-91.89351562 35.99621094 -91.89351562 35.99621094 -90.8125 34.80078125 C-67.70364647 10.01609483 -32.88669061 0.03178834 0 0 Z " fill="#000000" transform="translate(184.953125,258.83203125)"/>
<path d="M0 0 C3.84826092 0.29632655 4.85782591 1.26456215 7.55137062 3.96905041 C8.38972954 4.79627102 9.22808846 5.62349163 10.09185219 6.47577953 C11.44336624 7.85493793 11.44336624 7.85493793 12.82218361 9.26195812 C13.79390859 10.2321009 14.76694012 11.2009365 15.7411747 12.16855907 C18.3806948 14.79781614 21.00116492 17.44534111 23.61835957 20.09679794 C26.36056329 22.86908963 29.1189879 25.62515062 31.8754673 28.38323498 C36.50209227 33.01724372 41.11729812 37.66237497 45.72501564 42.31518078 C51.63821699 48.28612686 57.56982005 54.23843238 63.50749779 60.18502712 C68.61330061 65.29879363 73.71055781 70.4210539 78.80646038 75.54468346 C80.44427996 77.19069523 82.08326761 78.8355371 83.72241402 80.48022747 C86.29811881 83.0657311 88.8684368 85.65647744 91.43468094 88.25137043 C92.82652644 89.65655575 94.22320721 91.05694652 95.62001991 92.45719433 C96.44709953 93.29569424 97.27417915 94.13419415 98.12632179 94.99810314 C98.84674534 95.72447601 99.56716888 96.45084888 100.30942345 97.19923306 C103.65021124 101.03462325 104.3187399 103.94333149 104.54581642 109.04223156 C103.18078891 115.5434643 97.14113313 120.46621746 92.62589455 124.9553175 C91.88071068 125.704006 91.13552681 126.45269451 90.36776161 127.22407055 C87.91387673 129.68672725 85.45278511 132.1420323 82.99112892 134.59691906 C81.27977665 136.30961899 79.56872134 138.02261569 77.85795021 139.73589611 C74.27684295 143.31994823 70.69215229 146.90036699 67.10489845 150.47826672 C62.50462094 155.06713294 57.9134029 159.66494201 53.32481575 164.26549435 C49.7957419 167.80178922 46.26192581 171.33331411 42.72664833 174.86340618 C41.03147956 176.55724003 39.33779731 178.25256292 37.64562416 179.94938946 C35.28317223 182.31691234 32.91441803 184.67794285 30.5438633 187.03734875 C29.84452171 187.74073879 29.14518013 188.44412884 28.42464638 189.16883373 C27.7770385 189.81080196 27.12943062 190.4527702 26.46219826 191.11419201 C25.90325623 191.67237999 25.34431419 192.23056797 24.76843452 192.80567074 C21.06508199 195.95539249 18.0399708 196.47528522 13.18253517 196.60082531 C8.5680378 195.80166655 5.10096029 192.53240239 1.75641823 189.43894482 C0.92351265 188.67093044 0.09060707 187.90291607 -0.76753807 187.11162853 C-1.66750511 186.27202587 -2.56747215 185.43242321 -3.49471092 184.56737804 C-4.45289726 183.67855434 -5.4110836 182.78973064 -6.39830589 181.87397289 C-15.26546664 173.62900092 -24.00556306 165.25021566 -32.71043015 156.83442116 C-38.54798522 151.19536102 -44.41897856 145.60363051 -50.39510155 140.11132336 C-93.86731924 100.09099328 -93.86731924 100.09099328 -94.89422798 80.42512512 C-94.8806962 72.72264198 -93.56418065 65.32024741 -91.82776451 57.84243298 C-90.29896277 50.90387521 -90.44221163 43.8676187 -90.47575092 36.79518986 C-90.49700052 13.41524183 -90.49700052 13.41524183 -85.47762108 7.23754406 C-76.48131464 0.2160366 -63.76738468 2.01906061 -52.73543358 1.70238781 C-51.30963454 1.65922736 -49.88384323 1.61581108 -48.45805931 1.57215405 C-45.49490706 1.4820542 -42.53170466 1.39398292 -39.56844139 1.30761242 C-35.78254126 1.19724616 -31.99676008 1.08329754 -28.21100616 0.96803474 C-24.57335174 0.85743161 -20.93564521 0.74859037 -17.29793358 0.63988781 C-16.26958082 0.60894181 -16.26958082 0.60894181 -15.22045326 0.57737064 C-13.27121111 0.51903529 -11.3219265 0.46212394 -9.37264061 0.40526867 C-8.26744072 0.37275509 -7.16224083 0.34024151 -6.02355003 0.30674267 C-4.01359627 0.26199788 -2.00381 0.16328418 0 0 Z M-64.79012108 30.98754406 C-67.10834313 35.62398816 -67.45748424 39.61045459 -65.85262108 44.42504406 C-63.14890882 48.34978766 -60.62274199 51.67952183 -55.73543358 52.68676281 C-50.3641909 52.9489952 -47.03891057 51.87040623 -42.91512108 48.23754406 C-40.02909292 44.77431027 -39.3805496 41.74994321 -39.55965233 37.22973156 C-40.29979129 33.08169999 -42.82561704 30.36595896 -45.66512108 27.42504406 C-53.31234433 23.38900957 -58.77618278 25.37453498 -64.79012108 30.98754406 Z " fill="#000000" transform="translate(351.9151210784912,223.76245594024658)"/>
<path d="M0 0 C15.26974792 11.88348151 25.37313539 29.59852367 27.8984375 48.83203125 C29.78940011 68.66603416 25.24531568 87.40522847 12.8984375 103.26953125 C11.58259095 104.80551942 10.25055239 106.32787131 8.8984375 107.83203125 C8.38023437 108.44304687 7.86203125 109.0540625 7.328125 109.68359375 C-4.66637253 122.88356842 -22.85671314 129.86744653 -40.33203125 131.05078125 C-53.63431285 131.41152109 -66.34409387 129.25018287 -78.1015625 122.83203125 C-78.94074219 122.38988281 -79.77992188 121.94773438 -80.64453125 121.4921875 C-96.84251071 112.42634163 -108.96610912 97.49679156 -114.42578125 79.75390625 C-120.04822096 59.47355189 -117.38196603 39.75588418 -107.6796875 21.09765625 C-98.13789809 4.75379914 -82.99776229 -6.37428509 -65.1015625 -12.16796875 C-41.86937549 -18.06867738 -19.44182145 -13.58968628 0 0 Z " fill="#000000" transform="translate(245.1015625,101.16796875)"/>
</svg>
