<?xml version="1.0" encoding="UTF-8"?>
<svg version="1.1" xmlns="http://www.w3.org/2000/svg" width="512" height="512">
<path d="M0 0 C1.60694612 -0.01355956 3.2138851 -0.02799018 4.82081604 -0.04324341 C8.18566434 -0.06859669 11.54986585 -0.07395973 14.91479492 -0.06689453 C18.33422254 -0.06203359 21.75076644 -0.08957054 25.16967773 -0.14892578 C59.92842804 -0.74552378 59.92842804 -0.74552378 74.62890625 9.8046875 C77.69062278 11.20976436 80.78144 12.27274939 84.00390625 13.2421875 C84.75736328 13.47897217 85.51082031 13.71575684 86.28710938 13.9597168 C113.44584374 22.28773369 141.63803912 19.31353495 167.38671875 7.87890625 C170.83911043 6.73504154 172.25523299 6.57891955 175.62890625 7.8046875 C187.19881266 14.48906806 193.28551904 26.17635241 197.17879009 38.55272007 C197.78030362 41.56214077 197.765178 44.43059411 197.77607727 47.50022888 C197.77975396 48.17234392 197.78343065 48.84445895 197.78721875 49.53694111 C197.79822795 51.78822568 197.8020948 54.03946405 197.8059082 56.29077148 C197.81217521 57.90571742 197.81882222 59.52066193 197.82582092 61.13560486 C197.84684491 66.44065348 197.85722542 71.74570231 197.8671875 77.05078125 C197.87123642 78.88059059 197.87535339 80.71039978 197.87953758 82.54020882 C197.89858982 91.14246163 197.91281778 99.74470589 197.92114955 108.34697574 C197.93090632 118.25562551 197.95718484 128.16405096 197.99765044 138.07262176 C198.0278941 145.74333231 198.04262644 153.41397888 198.04593056 161.08474785 C198.04827269 165.65991142 198.05712261 170.23483537 198.08239174 174.80993462 C198.10582066 179.12167941 198.10984675 183.43302939 198.09963036 187.74482155 C198.09913838 189.31807144 198.10535783 190.89134175 198.1191864 192.46453094 C198.25348493 208.66366845 194.65242462 222.38902019 183.37890625 234.5546875 C167.26859752 249.45047184 149.45087279 249.39469181 128.75195312 249.32226562 C126.14209097 249.32769285 123.53223188 249.33481886 120.92237854 249.34350586 C114.5975305 249.36119827 108.27287341 249.35749286 101.94801819 249.3458553 C96.80305244 249.33678441 91.65813981 249.33561268 86.51316833 249.33995056 C85.77808586 249.34056349 85.04300339 249.34117643 84.28564569 249.34180793 C82.79186839 249.34308696 81.29809111 249.34438382 79.80431384 249.3456983 C65.83034499 249.35707691 51.85648148 249.34403325 37.88252991 249.32249683 C25.91854146 249.30462831 13.95470831 249.30773318 1.99072266 249.32617188 C-11.93669101 249.34762683 -25.8640126 249.35597852 -39.79144049 249.34372282 C-41.27941226 249.34244876 -42.76738404 249.34119127 -44.25535583 249.33995056 C-44.98727348 249.33933346 -45.71919112 249.33871636 -46.47328809 249.33808056 C-51.60603981 249.33464149 -56.73873263 249.34042466 -61.87147522 249.34986877 C-68.79259453 249.36232476 -75.71341734 249.35332888 -82.63450813 249.33029175 C-85.16679972 249.32502584 -87.69911607 249.32648187 -90.23139763 249.33534241 C-110.13871249 249.39854955 -126.41754913 248.27704967 -141.68359375 233.9921875 C-153.27758332 221.63949105 -155.9814176 207.5232224 -155.87280273 191.17919922 C-155.87659392 189.53849831 -155.88210051 187.89780063 -155.88917542 186.2571106 C-155.90304098 181.8356648 -155.89202438 177.41461202 -155.8754642 172.99318838 C-155.86152846 168.34808706 -155.86808325 163.70300658 -155.87159729 159.05789185 C-155.87429217 151.26232633 -155.86088429 143.46691543 -155.83764648 135.67138672 C-155.81102264 126.67809248 -155.80929831 117.68505627 -155.82103485 108.6917361 C-155.83183833 100.01204899 -155.82560661 91.33245458 -155.81147957 82.65277481 C-155.80574392 78.97120072 -155.80578325 75.289695 -155.81054497 71.60811996 C-155.81534051 67.26919756 -155.8051071 62.93055542 -155.78359032 58.59168625 C-155.77805791 57.00590459 -155.77752427 55.42009581 -155.78254318 53.83431244 C-155.8254422 38.32782284 -152.96134733 25.25435299 -141.80859375 13.8046875 C-138.88702371 10.97164988 -136.07400623 8.53917963 -132.37109375 6.8046875 C-128.57962773 7.06143244 -125.48811595 8.55037608 -122.05859375 10.1171875 C-114.70341386 13.26549651 -107.15423604 15.06562832 -99.37109375 16.8046875 C-98.57960937 16.99160156 -97.788125 17.17851562 -96.97265625 17.37109375 C-74.92564976 21.04559483 -53.00420481 17.66966157 -32.43359375 9.3671875 C-31.74773193 9.09108643 -31.06187012 8.81498535 -30.35522461 8.53051758 C-26.38375976 6.89425213 -26.38375976 6.89425213 -22.8086853 4.55574036 C-16.12069682 -0.74654327 -8.1098581 0.00329146 0 0 Z " fill="#000000" transform="translate(177.37109375,230.1953125)"/>
<path d="M0 0 C20.66470725 16.61985372 34.56914329 39.01073456 38.59375 65.4296875 C38.87347656 64.24375 39.15320313 63.0578125 39.44140625 61.8359375 C43.65649182 44.55713979 49.53603631 30.42323297 60.59375 16.4296875 C61.22925781 15.60984375 61.86476562 14.79 62.51953125 13.9453125 C77.81453381 -4.52659637 101.55361183 -16.26160957 125.1328125 -19.2890625 C152.43004322 -21.50734761 178.84878264 -15.36790152 200.53125 1.9296875 C202.23719161 3.40868022 203.92576482 4.90801681 205.59375 6.4296875 C206.37105469 7.12578125 207.14835937 7.821875 207.94921875 8.5390625 C227.50363433 26.9828142 237.1032962 53.21566844 237.90625 79.6796875 C237.34719816 108.12144989 226.3982047 133.30897225 206.10009766 153.27270508 C188.00420966 170.52526181 163.29654715 179.891142 138.40625 179.7421875 C137.4052124 179.73654785 136.4041748 179.7309082 135.37280273 179.72509766 C107.877463 179.27973974 84.56596366 167.9769318 65.09765625 148.99609375 C50.62151819 133.71711961 42.74895765 114.85945843 38.59375 94.4296875 C38.44679687 95.2546875 38.29984375 96.0796875 38.1484375 96.9296875 C33.19495168 122.43729265 20.21157974 145.47317769 -1.09375 161.0546875 C-24.5079593 176.54240161 -51.85617373 183.72123497 -79.84838867 178.24951172 C-97.58427718 174.24220756 -113.81155938 166.60142338 -127.40625 154.4296875 C-128.74623047 153.23085938 -128.74623047 153.23085938 -130.11328125 152.0078125 C-147.50130095 135.56823024 -158.91349244 112.30686618 -159.64453125 88.25390625 C-160.13589486 56.83307655 -152.52640365 31.5026642 -130.40625 8.4296875 C-95.64434343 -24.91913344 -38.58364474 -29.80055588 0 0 Z M-85.40625 48.4296875 C-86.23125 48.9865625 -87.05625 49.5434375 -87.90625 50.1171875 C-94.97272191 56.65367402 -99.78520777 66.16827069 -100.609375 75.8046875 C-100.84797372 89.16621573 -97.39132435 98.80107464 -88.37109375 108.65234375 C-80.95517864 115.85291468 -71.70063523 120.06395092 -61.328125 120.55859375 C-49.67761506 120.04460066 -41.19517547 116.69234702 -32.65625 108.9296875 C-31.91375 108.1046875 -31.17125 107.2796875 -30.40625 106.4296875 C-29.560625 105.5428125 -28.715 104.6559375 -27.84375 103.7421875 C-20.82022965 95.21204449 -19.58069282 84.03220047 -20.40625 73.4296875 C-22.58632352 62.77884638 -27.97021671 52.88886724 -37.140625 46.74609375 C-52.78305419 37.657303 -70.55978908 37.11809823 -85.40625 48.4296875 Z M105.12890625 56.3671875 C98.46281361 65.3231593 96.85553393 75.1484024 98.00390625 86.12890625 C100.0375755 97.50937323 105.83087291 106.52049057 115.1875 113.3125 C125.23068973 119.57436829 134.89383356 121.52079099 146.59375 119.4296875 C158.14186468 116.61214967 166.24195215 110.41724294 172.59375 100.4296875 C178.29697211 90.65074813 179.41396577 80.1263359 176.82421875 69.17578125 C174.24545597 61.6244241 170.44831779 55.86607188 164.59375 50.4296875 C163.748125 49.6046875 162.9025 48.7796875 162.03125 47.9296875 C152.93877826 40.69703952 142.77954223 39.25497727 131.5546875 40.18603516 C120.46525177 41.56393068 112.0908886 47.99377821 105.12890625 56.3671875 Z " fill="#000000" transform="translate(159.40625,52.5703125)"/>
<path d="M0 0 C4.9066211 3.32004901 7.64975445 6.49635432 10 12 C10.37752342 15.43336296 10.37752342 15.43336296 10.38095093 19.27340698 C10.3856309 19.98342712 10.39031087 20.69344725 10.39513266 21.42498314 C10.40705161 23.79246672 10.39763785 26.1593681 10.38818359 28.52685547 C10.39225076 30.22902767 10.39759345 31.93119724 10.40411377 33.63336182 C10.41777804 38.24916492 10.41249183 42.8647666 10.40297651 47.48057318 C10.39537286 52.31616598 10.40242772 57.15174172 10.40713501 61.98733521 C10.41259154 70.10958953 10.40540471 78.23176201 10.39111328 86.35400391 C10.37479796 95.7346036 10.38006756 105.11500756 10.3965925 114.49560249 C10.41022338 122.55694528 10.41211886 130.61822926 10.40427649 138.67957985 C10.39960737 143.49090603 10.39895394 148.30214033 10.40888596 153.11346054 C10.41757627 157.63941568 10.41149606 162.16511956 10.39420319 166.69104767 C10.39024888 168.34862222 10.39135424 170.00621805 10.39799118 171.66378403 C10.43186561 180.98613775 10.34138675 188.55477714 5.3125 196.75 C0.21249863 201.71216349 -5.92597278 203.98021251 -13 204 C-20.60298383 202.76112094 -26.44343274 199.16203297 -33 195.25 C-34.15307827 194.57195056 -35.30673514 193.8948842 -36.4609375 193.21875 C-38.82855231 191.8299394 -41.19295059 190.43589167 -43.5546875 189.03710938 C-47.71742647 186.57281904 -51.89674336 184.13723214 -56.0769043 181.70263672 C-58.02976481 180.56513992 -59.98174794 179.42613552 -61.93286133 178.28564453 C-67.21967967 175.1957474 -72.5157035 172.12280243 -77.82421875 169.0703125 C-78.68528732 168.57504059 -78.68528732 168.57504059 -79.56375122 168.06976318 C-82.31900695 166.48529807 -85.07545001 164.90297026 -87.83398438 163.32421875 C-89.80671399 162.19081427 -91.76685498 161.03507942 -93.71076965 159.85293579 C-96.9407921 157.93202264 -96.9407921 157.93202264 -100.38005066 156.68026733 C-104.24759061 154.94979632 -107.40297625 153.41609231 -110 150 C-112.52249145 143.03898444 -111.82899704 135.1299364 -111.7265625 127.84375 C-111.73532756 125.65472596 -111.74795094 123.46571429 -111.76425171 121.2767334 C-111.78338446 116.6961176 -111.75568902 112.11880474 -111.69482422 107.53857422 C-111.62073054 101.67855786 -111.66339867 95.82627767 -111.74126625 89.9665451 C-111.78834236 85.44828418 -111.77325168 80.93184556 -111.73960495 76.41352844 C-111.73095899 74.25424778 -111.74148515 72.09479934 -111.77183914 69.93571472 C-111.9514842 53.56695773 -111.9514842 53.56695773 -108.74040413 49.34314346 C-105.2648789 46.2563394 -101.31046511 44.68301076 -97 43 C-94.94395986 41.84176237 -92.90299596 40.65583662 -90.88671875 39.4296875 C-88.82131788 38.24304004 -86.75488119 37.05819395 -84.6875 35.875 C-82.39945164 34.56039305 -80.11164486 33.24537586 -77.82421875 31.9296875 C-76.11177979 30.94500488 -76.11177979 30.94500488 -74.36474609 29.94042969 C-69.23153865 26.98013853 -64.11553112 23.99069682 -59 21 C-56.04742794 19.27760456 -53.09451513 17.55579425 -50.14160156 15.83398438 C-47.93418512 14.5453527 -45.72775592 13.25514016 -43.52246094 11.96289062 C-40.55252309 10.22289432 -37.57928934 8.48864743 -34.60400391 6.7578125 C-32.91734645 5.77468316 -31.23401748 4.78585046 -29.55078125 3.796875 C-28.52082031 3.19875 -27.49085938 2.600625 -26.4296875 1.984375 C-25.52460449 1.45553711 -24.61952148 0.92669922 -23.68701172 0.38183594 C-15.54728064 -3.80414243 -8.13212202 -4.26576931 0 0 Z " fill="#000000" transform="translate(502,255)"/>
</svg>
