<?xml version="1.0" encoding="UTF-8"?>
<svg version="1.1" xmlns="http://www.w3.org/2000/svg" width="512" height="512">
<path d="M0 0 C0.91297852 0.16628906 1.82595703 0.33257812 2.76660156 0.50390625 C44.3986228 8.16363077 83.16052206 26.40624883 116 53 C116.54446777 53.44005371 117.08893555 53.88010742 117.64990234 54.33349609 C131.72173929 65.81174863 144.93680647 78.57719064 156 93 C156.75925781 93.93070312 157.51851563 94.86140625 158.30078125 95.8203125 C184.1596216 128.07168914 200.62794761 167.52514646 208 208 C208.16371094 208.83563477 208.32742188 209.67126953 208.49609375 210.53222656 C213.78656862 238.24163521 213.41678597 270.35093304 208 298 C207.83371094 298.91297852 207.66742188 299.82595703 207.49609375 300.76660156 C199.83636923 342.3986228 181.59375117 381.16052206 155 414 C154.55994629 414.54446777 154.11989258 415.08893555 153.66650391 415.64990234 C142.18825137 429.72173929 129.42280936 442.93680647 115 454 C114.06929688 454.75925781 113.13859375 455.51851563 112.1796875 456.30078125 C79.92831086 482.1596216 40.47485354 498.62794761 0 506 C-0.83563477 506.16371094 -1.67126953 506.32742188 -2.53222656 506.49609375 C-30.24163521 511.78656862 -62.35093304 511.41678597 -90 506 C-90.91297852 505.83371094 -91.82595703 505.66742188 -92.76660156 505.49609375 C-134.3986228 497.83636923 -173.16052206 479.59375117 -206 453 C-206.54446777 452.55994629 -207.08893555 452.11989258 -207.64990234 451.66650391 C-221.72173929 440.18825137 -234.93680647 427.42280936 -246 413 C-246.75925781 412.06929688 -247.51851562 411.13859375 -248.30078125 410.1796875 C-274.1596216 377.92831086 -290.62794761 338.47485354 -298 298 C-298.16371094 297.16436523 -298.32742188 296.32873047 -298.49609375 295.46777344 C-303.78656862 267.75836479 -303.41678597 235.64906696 -298 208 C-297.83371094 207.08702148 -297.66742188 206.17404297 -297.49609375 205.23339844 C-289.83636923 163.6013772 -271.59375117 124.83947794 -245 92 C-244.55994629 91.45553223 -244.11989258 90.91106445 -243.66650391 90.35009766 C-232.18825137 76.27826071 -219.42280936 63.06319353 -205 52 C-204.06929688 51.24074219 -203.13859375 50.48148438 -202.1796875 49.69921875 C-169.92831086 23.8403784 -130.47485354 7.37205239 -90 0 C-89.16436523 -0.16371094 -88.32873047 -0.32742188 -87.46777344 -0.49609375 C-59.75836479 -5.78656862 -27.64906696 -5.41678597 0 0 Z M42.92138672 167.96508789 C41.53098187 169.35577535 40.14035571 170.74624159 38.74952698 172.13650513 C35.00212931 175.8836177 31.25780725 179.63378964 27.51405859 183.38454747 C23.59077616 187.31411168 19.6646323 191.2408149 15.73880005 195.16783142 C8.31747748 202.59225315 0.89870614 210.01921868 -6.51913631 217.44711727 C-14.9694572 225.90864341 -23.42264219 234.36730583 -31.87606072 242.82573712 C-49.25388032 260.21398902 -66.62812685 277.6058074 -84 295 C-87.21630141 293.47396585 -89.28769299 291.90199229 -91.75 289.3125 C-94.27703646 286.72078619 -96.81300884 284.22913949 -99.5625 281.875 C-103.64935849 278.36272954 -107.57148232 274.68685883 -111.5 271 C-117.17446008 265.6666497 -117.17446008 265.6666497 -123 260.5 C-126.89377812 257.15033061 -130.62734168 253.63595441 -134.375 250.125 C-136.32385307 248.30331907 -138.27312637 246.48208941 -140.22265625 244.66113281 C-141.77481726 243.21045925 -143.3250712 241.75774575 -144.875 240.3046875 C-152.34550945 233.4178116 -159.83871487 226.67559294 -170.3125 225.6875 C-177.9045984 226.33089817 -183.70226771 228.63241902 -189.26953125 233.921875 C-193.97674167 239.57477781 -195.71786836 246.27690869 -195.38671875 253.55078125 C-193.86641154 263.17939359 -187.73467927 269.64802982 -180.5703125 275.75 C-177.13832159 278.754296 -173.82416277 281.87737581 -170.5 285 C-166.08951644 289.13657385 -161.66129299 293.22636517 -157.078125 297.171875 C-153.63253872 300.20295466 -150.2831191 303.33826452 -146.91748047 306.45751953 C-143.63444709 309.49785683 -140.33306497 312.51435549 -137 315.5 C-133.13337328 318.96489927 -129.30990361 322.47308937 -125.5 326 C-120.83562185 330.31670576 -116.14710783 334.60302872 -111.40625 338.8359375 C-109.72603041 340.34704408 -108.0604224 341.87448638 -106.40625 343.4140625 C-98.69893878 350.5410039 -92.24172816 355.45068407 -81.4296875 355.2734375 C-68.53453521 353.82221457 -59.41358752 341.54933888 -50.84251404 332.91767883 C-48.99384125 331.05607968 -47.14192039 329.19776496 -45.28918457 327.34020996 C-41.3566189 323.39629435 -37.42801101 319.44845124 -33.5 315.5 C-28.94316217 310.91944971 -24.38465593 306.34058551 -19.82188416 301.76594543 C-18.00974195 299.94738709 -16.20067157 298.12581204 -14.39172363 296.30407715 C-13.26585688 295.17457328 -12.13984689 294.04521214 -11.01367188 292.91601562 C-10.52201035 292.41918777 -10.03034882 291.92235992 -9.52378845 291.41047668 C-6.85033216 288.73662697 -4.10492578 286.20058492 -1.23919678 283.73324585 C3.66321252 279.48230112 8.24302329 274.92762404 12.84082031 270.35205078 C13.8008471 269.39994642 14.76104706 268.44801664 15.72140503 267.49624634 C18.84397782 264.39961517 21.96135447 261.297782 25.078125 258.1953125 C26.15777904 257.12102695 27.23743757 256.04674592 28.31710052 254.97246933 C32.80779529 250.50334955 37.29707022 246.03281157 41.78264236 241.55854988 C48.1834901 235.17395837 54.59269857 228.79803039 61.01379323 222.43379986 C65.54591611 217.94043879 70.06835595 213.43747554 74.5837791 208.92733371 C77.27385908 206.24089441 79.96790002 203.55874113 82.67240143 200.88681412 C85.21486277 198.37454892 87.74504363 195.85052334 90.26657486 193.31725693 C91.62667625 191.95683176 92.9991132 190.60877363 94.37197876 189.26123047 C100.068653 183.5066622 104.08417457 178.11784801 105.53125 170.03125 C105.43440248 162.18660128 103.75496088 156.36717441 98.75 150.25 C75.4192188 131.16117902 59.65160188 151.18679634 42.92138672 167.96508789 Z " fill="rgb(11, 188, 8)" transform="translate(301,3)"/>
</svg>
