<?xml version="1.0" encoding="UTF-8"?>
<svg version="1.1" xmlns="http://www.w3.org/2000/svg" width="512" height="512" style="fill:white;">
<path d="M0 0 C0.9398877 0.16097168 1.87977539 0.32194336 2.84814453 0.48779297 C46.55626364 8.30166073 88.1089234 28.05331076 120.453125 58.60546875 C122.52265535 60.55120818 124.6186913 62.38682958 126.8125 64.1875 C130.63756761 67.43329055 133.77968496 71.16691246 137 75 C138.10988281 76.26070312 138.10988281 76.26070312 139.2421875 77.546875 C172.4548569 115.95897187 189.92897143 166.23965168 187 217 C185.87079068 232.00512773 183.28901883 246.57975671 179 261 C178.79036621 261.70608398 178.58073242 262.41216797 178.36474609 263.13964844 C172.75579809 281.45616688 164.16362028 299.42804366 153 315 C152.55043945 315.63454102 152.10087891 316.26908203 151.63769531 316.92285156 C144.73883728 326.59619955 137.27526655 335.48346395 129 344 C128.53207031 344.48839355 128.06414062 344.97678711 127.58203125 345.47998047 C89.83828063 384.82281857 36.65547126 407.1477959 -17 413 C-17.96808594 413.11214844 -18.93617188 413.22429687 -19.93359375 413.33984375 C-53.13933947 416.55899307 -89.6537757 413.31409647 -121.15625 401.8515625 C-125.84930864 400.44622351 -128.79435502 400.46415779 -133.3046875 402.46875 C-134.50185822 403.13325886 -135.69191538 403.81072461 -136.875 404.5 C-144.06236756 408.57841322 -151.43798347 412.25094477 -158.83752441 415.92419434 C-162.35910098 417.67613643 -165.87249259 419.44431206 -169.38671875 421.2109375 C-171.45907283 422.25079897 -173.53164348 423.29022774 -175.60424805 424.32958984 C-177.01312137 425.03658569 -178.42164067 425.7442874 -179.82983398 426.45263672 C-181.91035423 427.498958 -183.99215512 428.54269148 -186.07421875 429.5859375 C-186.69818039 429.90049896 -187.32214203 430.21506042 -187.9650116 430.53915405 C-194.85657598 433.98537839 -200.23191022 436.15694954 -208 435 C-213.31271058 432.83556236 -216.37959873 430.11615009 -219 425 C-221.25238925 410.73740453 -217.09017476 394.93458157 -215 380.875 C-214.42478949 376.9620992 -213.85528913 373.04837749 -213.28808594 369.13430786 C-212.93639554 366.71298572 -212.58045526 364.29227605 -212.21972656 361.87228394 C-212.05956055 360.7798941 -211.89939453 359.68750427 -211.734375 358.56201172 C-211.59225586 357.60575897 -211.45013672 356.64950623 -211.30371094 355.66427612 C-211.00462734 353.04059294 -210.77885609 350.63383368 -211 348 C-212.84010107 345.89186456 -214.62179233 344.10942908 -216.6875 342.25 C-224.44862137 334.86720925 -230.79554652 326.70952872 -237 318 C-237.47679199 317.33548828 -237.95358398 316.67097656 -238.44482422 315.98632812 C-268.55981504 273.44376497 -278.60096879 220.96326436 -270 170 C-263.3106038 133.13001692 -245.49153943 100.92510349 -221 73 C-220.20335937 72.07960938 -219.40671875 71.15921875 -218.5859375 70.2109375 C-214.02902201 65.02764187 -209.29049352 60.41933164 -204 56 C-203.03191406 55.15566406 -202.06382812 54.31132813 -201.06640625 53.44140625 C-146.79124062 6.25534337 -70.36736672 -12.16479627 0 0 Z M-182.7109375 81.90234375 C-184.71647742 83.74018494 -186.77359293 85.46227074 -188.875 87.1875 C-218.09738491 112.82323405 -235.41272611 152.52343577 -239.75 190.5625 C-239.86247981 192.3734249 -239.94181343 194.18651854 -240 196 C-240.02578125 196.64130859 -240.0515625 197.28261719 -240.078125 197.94335938 C-241.64533265 241.39419145 -225.74315965 283.21146061 -196.5 315.25 C-193.63099972 318.3111022 -190.71336885 321.29676716 -187.71484375 324.23046875 C-186.895 325.03532715 -186.895 325.03532715 -186.05859375 325.85644531 C-185.00805064 326.88104128 -183.9498608 327.89787796 -182.8828125 328.90527344 C-179.32807194 332.34743125 -177.33651538 335.30729674 -176.71679688 340.26611328 C-176.72402602 349.25735976 -178.13724484 358.01068923 -179.5 366.875 C-179.85957205 369.2457623 -180.21678641 371.61682976 -180.56994629 373.98855591 C-180.78844758 375.4527723 -181.01080607 376.91642013 -181.2376709 378.37936401 C-181.77565095 381.95238505 -182.12260183 385.38587307 -182 389 C-176.59713778 387.40227702 -171.7719271 385.00637993 -166.76953125 382.46484375 C-165.89729416 382.02612442 -165.02505707 381.58740509 -164.12638855 381.13539124 C-161.3531537 379.7399023 -158.58266561 378.33907045 -155.8125 376.9375 C-153.03127422 375.53307108 -150.24946951 374.12982087 -147.46647644 372.72889709 C-145.73807842 371.8585764 -144.01075418 370.98611925 -142.28462219 370.11131287 C-141.11276619 369.52048668 -141.11276619 369.52048668 -139.91723633 368.91772461 C-138.88848137 368.39715736 -138.88848137 368.39715736 -137.83894348 367.86607361 C-131.23079863 364.75388451 -124.41705838 365.31045805 -117.6171875 367.57421875 C-115.69941108 368.26847114 -113.78546763 368.97338081 -111.875 369.6875 C-58.67137829 388.41895261 1.1703287 383.99371661 51.9140625 359.68603516 C70.91920421 350.21113402 87.67658644 337.60380574 103 323 C103.83015625 322.23429687 104.6603125 321.46859375 105.515625 320.6796875 C134.96749084 292.65291194 153.08609935 251.0106595 154.16796875 210.46484375 C154.60701031 167.26881909 139.57502559 126.90710931 110.015625 95.16796875 C108.09090389 93.09777453 106.26252513 90.97046891 104.4375 88.8125 C78.10300237 58.75877947 35.44606558 40.21812056 -3 33 C-3.85609863 32.83773926 -4.71219727 32.67547852 -5.59423828 32.50830078 C-67.73355838 21.32253055 -136.10173472 38.77033546 -182.7109375 81.90234375 Z " fill="white" transform="translate(299,40)"/>
<path d="M0 0 C2.0625 1.5625 2.0625 1.5625 3 4 C2.78554929 10.5218546 0.1993175 14.38692617 -3.421875 19.54296875 C-4.26783737 20.78167725 -4.26783737 20.78167725 -5.13088989 22.04541016 C-6.99266917 24.7673544 -8.87140052 27.47714401 -10.75 30.1875 C-13.3989172 34.04820028 -16.03903633 37.91489291 -18.6796875 41.78125 C-19.70166733 43.27364449 -19.70166733 43.27364449 -20.74429321 44.79618835 C-25.61874735 51.92832087 -30.40184039 59.1157439 -35.1328125 66.34375 C-35.78660889 67.34207352 -36.44040527 68.34039703 -37.11401367 69.36897278 C-39.65794825 73.25742734 -42.19932117 77.14748215 -44.73083496 81.04403687 C-46.47945667 83.734589 -48.23532 86.42029647 -49.9921875 89.10546875 C-50.7515007 90.28254395 -50.7515007 90.28254395 -51.52615356 91.48339844 C-61.37289637 106.49222095 -61.37289637 106.49222095 -67.91015625 108.56640625 C-68.59980469 108.70949219 -69.28945313 108.85257812 -70 109 C-70.84433594 109.19464844 -71.68867188 109.38929688 -72.55859375 109.58984375 C-84.83175382 111.0102745 -94.93609462 103.03091361 -105 97 C-108.20133424 95.10899532 -111.40623158 93.22428388 -114.61401367 91.34423828 C-116.65003554 90.14687673 -118.68052525 88.94003927 -120.7043457 87.72216797 C-132.57416777 80.42485894 -132.57416777 80.42485894 -146 79 C-152.45198976 81.25626468 -157.42650377 84.56758302 -162.5625 89 C-163.95616365 90.16795845 -165.35205947 91.33325775 -166.75 92.49609375 C-167.80574219 93.37563721 -167.80574219 93.37563721 -168.8828125 94.27294922 C-172.19713136 96.9765345 -175.62262122 99.52184789 -179.0625 102.0625 C-184.42872268 106.03506935 -189.68362583 110.11412667 -194.875 114.3125 C-196.69518139 115.77128545 -198.51774617 117.22696985 -200.34277344 118.6796875 C-201.87013596 119.89653731 -203.39234485 121.1198484 -204.9140625 122.34375 C-211.71339513 127.52028119 -211.71339513 127.52028119 -216 127.125 C-219 126 -219 126 -221 123 C-221.88741314 117.17687951 -219.48103825 113.75354956 -216.4375 109.0625 C-215.94789795 108.28527588 -215.4582959 107.50805176 -214.95385742 106.70727539 C-213.31963909 104.12681036 -211.66299132 101.56200764 -210 99 C-209.42733398 98.11538086 -208.85466797 97.23076172 -208.26464844 96.31933594 C-205.18129668 91.56434885 -202.08100501 86.82070678 -198.97265625 82.08203125 C-194.85311864 75.79184172 -190.7966209 69.46226989 -186.75 63.125 C-176.32444279 46.80391976 -176.32444279 46.80391976 -172.01733398 40.20239258 C-169.5400803 36.40337805 -167.11092029 32.57984376 -164.71875 28.7265625 C-164.15244873 27.82655518 -163.58614746 26.92654785 -163.00268555 25.99926758 C-161.91135159 24.26445171 -160.83121998 22.52251442 -159.76489258 20.7722168 C-155.78297585 14.48890121 -151.21776407 9.40592136 -144 7 C-141.28515625 6.65625 -141.28515625 6.65625 -138.0625 6.5 C-137.02222656 6.4278125 -135.98195313 6.355625 -134.91015625 6.28125 C-123.04393283 8.4624539 -111.42507341 18.97451056 -101.53540039 25.6887207 C-99.56918292 27.02165676 -97.59922815 28.34892292 -95.62890625 29.67578125 C-95.03614395 30.08097488 -94.44338165 30.48616852 -93.83265686 30.90364075 C-87.31076922 35.29022472 -81.82988151 37.41344614 -74 36 C-68.4004722 33.83135794 -63.24076795 30.91417561 -58 28 C-55.92460525 26.86174924 -53.84907504 25.72374545 -51.7734375 24.5859375 C-42.60237458 19.53268449 -33.44803931 14.46284168 -24.4296875 9.140625 C-23.397229 8.53758545 -22.36477051 7.9345459 -21.30102539 7.31323242 C-19.36176344 6.17717757 -17.43064652 5.02705878 -15.50952148 3.8605957 C-10.02439078 0.6597975 -6.3733707 -0.81453392 0 0 Z " fill="white" transform="translate(368,188)"/>
</svg>
